<svg version="1.1" id="Layer_1" xmlns="http://www.w3.org/2000/svg" xmlns:xlink="http://www.w3.org/1999/xlink" x="0px" y="0px"
	 width="100%" viewBox="0 0 340 344" enable-background="new 0 0 340 344" xml:space="preserve">
<path fill="#000001" opacity="1.000000" stroke="none" 
	d="
M198.000000,345.000000 
	C132.000015,345.000000 66.500023,345.000000 1.000026,345.000000 
	C1.000018,230.333359 1.000018,115.666733 1.000009,1.000072 
	C114.333282,1.000048 227.666565,1.000048 340.999878,1.000024 
	C340.999939,115.666595 340.999939,230.333191 340.999969,344.999878 
	C293.500000,345.000000 246.000000,345.000000 198.000000,345.000000 
M130.004242,103.027138 
	C130.004242,103.027138 130.066956,103.055832 130.532013,102.935760 
	C130.832947,102.762421 131.002975,102.503227 131.547775,102.027756 
	C132.737198,101.046043 133.926605,100.064323 135.045441,99.058876 
	C135.045441,99.058876 135.044769,99.133339 135.556259,99.026924 
	C136.742828,98.044441 137.929398,97.061958 139.047241,96.053177 
	C139.047241,96.053177 139.036346,96.125946 139.569916,95.964485 
	C139.756561,95.655563 139.943207,95.346642 140.057846,95.055229 
	C140.057846,95.055229 140.086304,95.123657 140.601578,95.086601 
	C141.456696,94.409485 142.311813,93.732361 143.597763,92.925941 
	C143.873779,92.753365 144.024277,92.504799 144.570419,92.037125 
	C148.719437,89.083702 152.684784,85.811874 157.076202,83.278679 
	C160.523132,81.290314 161.328308,78.632568 161.282745,75.079597 
	C161.136002,63.637863 161.092651,52.194714 161.032379,40.751991 
	C161.003860,35.336521 161.027496,29.920774 161.027496,24.505152 
	C160.449020,24.065872 159.870560,23.626593 159.292084,23.187311 
	C158.595093,24.469616 157.898087,25.751921 156.547089,27.251087 
	C147.709244,34.580570 138.871414,41.910053 129.405807,49.437923 
	C123.086266,54.414387 116.766724,59.390850 109.879448,64.744041 
	C94.938934,76.201485 79.960060,87.609467 65.081146,99.146347 
	C60.586323,102.631561 56.368633,106.474190 51.497364,110.765388 
	C51.703442,127.021027 51.909523,143.276672 52.383228,160.074692 
	C54.824730,158.650635 57.391544,157.402771 59.685383,155.771133 
	C68.252068,149.677521 76.729301,143.458130 85.824844,137.118362 
	C86.765831,136.402176 87.706810,135.686005 89.336411,134.803604 
	C91.684525,133.017670 94.032639,131.231735 96.988617,129.164093 
	C98.533516,127.878395 100.078423,126.592705 102.214233,125.133308 
	C103.128883,124.322990 104.043526,123.512672 105.364655,122.687859 
	C105.634956,122.436066 105.905251,122.184273 106.861526,121.636597 
	C111.400986,118.039528 115.940437,114.442459 120.786827,110.811623 
	C120.786827,110.811623 120.869194,110.514030 121.425644,110.366760 
	C121.848686,109.994156 122.271729,109.621559 123.307953,109.093925 
	C125.405197,107.368645 127.502449,105.643372 129.930023,103.532692 
	C129.975082,103.369598 130.020126,103.206512 130.004242,103.027138 
M138.656174,118.628632 
	C138.450058,118.832451 138.243942,119.036263 137.611023,119.182739 
	C137.111420,119.467651 136.611816,119.752563 135.514511,120.092255 
	C134.970612,120.656647 134.426727,121.221046 133.311340,122.145020 
	C127.270142,127.353706 121.156746,132.482925 115.254547,137.844620 
	C114.196976,138.805359 114.012016,140.726669 113.343849,142.761032 
	C113.567558,143.420563 113.791275,144.080109 114.020988,145.683090 
	C114.074539,147.884933 114.128090,150.086792 113.853661,152.294968 
	C113.853661,152.294968 113.742859,152.703323 113.742859,152.703323 
	C113.742859,152.703323 114.150368,152.853668 114.112526,153.380920 
	C114.148262,153.553467 114.183998,153.726013 114.018776,154.464020 
	C114.079689,154.654404 114.140602,154.844772 114.093872,155.823700 
	C114.138023,156.882294 114.182175,157.940872 113.948746,159.654770 
	C114.033867,160.113220 114.118988,160.571686 114.116142,161.570099 
	C114.220886,162.104111 114.325638,162.638123 114.294975,163.601089 
	C114.294975,163.601089 114.440643,164.026657 114.274460,164.603241 
	C114.338219,165.393082 114.401978,166.182907 114.262642,167.887177 
	C114.362167,172.288315 114.461693,176.689438 114.337410,181.895920 
	C114.430969,183.276230 114.524521,184.656525 114.415474,186.677979 
	C114.487747,187.114700 114.560020,187.551407 114.378975,188.771225 
	C114.477722,189.850510 114.576462,190.929810 114.458900,192.657242 
	C114.539406,193.099075 114.619911,193.540894 114.433495,194.670410 
	C114.539528,195.384247 114.645569,196.098083 114.609161,197.411194 
	C114.668488,197.607758 114.727814,197.804321 114.477486,198.847290 
	C114.500542,201.256912 114.523605,203.666534 114.280663,206.807465 
	C114.373009,207.570343 114.465355,208.333221 114.429886,209.878372 
	C114.484726,210.929108 114.539558,211.979843 114.443245,213.505707 
	C114.443245,213.505707 114.625847,213.969650 114.514099,214.693497 
	C114.609512,215.167053 114.704926,215.640610 114.497200,216.940170 
	C114.552231,218.996002 114.607254,221.051834 114.365044,223.980728 
	C114.409904,236.977890 114.342148,249.977310 114.604172,262.970093 
	C114.650948,265.289703 115.371277,268.425629 116.968880,269.736816 
	C123.076210,274.749329 129.668747,279.170654 136.120071,283.940704 
	C136.120071,283.940704 136.253250,283.924927 136.335785,284.228668 
	C136.335785,284.228668 136.583572,284.417725 136.583572,284.417725 
	C136.583572,284.417725 136.885574,284.341187 137.450073,284.729370 
	C137.664154,284.808807 137.878250,284.888275 138.406403,285.548584 
	C145.586166,290.375214 152.765945,295.201874 160.898010,300.668701 
	C161.247803,297.611725 161.553284,296.183899 161.553284,294.756073 
	C161.553192,272.442474 161.602631,250.128143 161.424179,227.815735 
	C161.376205,221.818008 160.607391,215.826035 160.217712,209.228668 
	C160.168793,208.829849 160.119888,208.431046 160.393845,207.859634 
	C160.284607,207.571320 160.175369,207.283005 160.172134,206.342484 
	C160.142090,205.904297 160.112030,205.466095 160.689972,204.717651 
	C160.700058,201.660324 160.712769,198.603012 160.719818,195.545685 
	C160.787582,166.152664 160.866425,136.759659 160.891495,107.366600 
	C160.892990,105.608810 160.462204,103.850662 160.042542,101.400597 
	C159.000854,101.468292 157.581787,101.119545 156.976135,101.668404 
	C151.212540,106.891418 145.586914,112.266663 139.645218,117.598373 
	C139.645218,117.598373 139.292984,117.768211 139.292984,117.768211 
	C139.292984,117.768211 139.314774,118.060776 138.656174,118.628632 
M245.221161,174.141617 
	C245.221161,174.141617 245.138138,174.399582 244.533676,174.579071 
	C243.512741,175.321442 242.491806,176.063797 241.188477,176.777634 
	C241.188477,176.777634 241.001068,176.990784 240.089905,177.075684 
	C236.064255,176.941910 232.038620,176.808136 227.371613,176.356369 
	C226.899902,176.326508 226.428207,176.296646 225.312164,175.815201 
	C221.952515,176.131531 217.715179,175.252213 215.381088,176.965607 
	C203.582642,185.626602 192.186005,194.849228 180.899948,204.179092 
	C179.147858,205.627457 178.695251,208.647781 177.188309,211.753128 
	C177.076630,212.361481 176.964951,212.969818 176.860062,213.479736 
	C176.860062,213.479736 176.836990,213.546097 176.280060,214.248474 
	C176.200531,214.536499 176.121002,214.824524 175.707458,215.788116 
	C175.742218,220.921555 175.776978,226.054977 175.713074,231.952179 
	C175.752945,233.233109 175.792816,234.514053 175.272400,236.166214 
	C175.014435,236.930878 174.522537,237.698700 174.532761,238.459763 
	C174.784485,257.225250 175.052353,275.990784 175.442963,294.753693 
	C175.481445,296.601440 176.330429,298.432312 176.793488,300.233246 
	C177.735046,300.048248 178.117188,300.078613 178.362320,299.909882 
	C192.016510,290.512360 205.670502,281.114319 219.271927,271.640839 
	C219.997696,271.135345 220.681396,269.984467 220.690674,269.126526 
	C220.775833,261.245972 220.707596,253.363708 220.831284,244.639923 
	C220.732239,244.089249 220.633194,243.538589 220.781158,242.204620 
	C220.780991,241.658661 220.780838,241.112701 221.263535,240.004807 
	C221.408386,234.665237 221.553253,229.325668 222.086502,223.306931 
	C222.944687,220.075104 225.332047,219.624222 228.251907,219.570892 
	C233.170578,219.481003 238.083328,219.068008 243.622803,218.881088 
	C243.833023,218.884201 244.043228,218.887314 244.221619,219.214722 
	C244.221619,219.214722 244.581131,219.300339 244.581131,219.300339 
	C244.581131,219.300339 244.630737,218.863724 245.393829,218.766632 
	C245.895386,218.665451 246.396927,218.564270 247.582260,218.628891 
	C248.714996,218.084457 249.847733,217.540024 251.766724,217.037094 
	C259.636353,214.662277 267.488037,212.251511 274.153137,206.070389 
	C277.183411,203.073532 280.213684,200.076660 283.799286,196.783859 
	C284.310455,195.892258 284.821625,195.000656 285.875031,193.739822 
	C288.549225,187.253326 291.223450,180.766830 294.265472,173.757553 
	C294.715881,166.669189 295.622528,159.568008 295.423676,152.497910 
	C295.324677,148.977936 293.199768,145.514938 292.037994,141.401215 
	C288.321838,130.198730 282.383484,120.502693 272.924286,113.061150 
	C272.924286,113.061150 272.790314,113.086411 272.568573,112.462227 
	C266.340088,108.658302 260.111572,104.854378 253.426224,100.517075 
	C251.591400,100.112366 249.756561,99.707649 247.288300,99.145226 
	C246.853775,99.132462 246.419235,99.119698 245.283722,98.688454 
	C240.819077,98.601898 236.354416,98.515335 231.046188,98.284782 
	C229.043213,98.314651 227.040253,98.344521 224.504303,98.182793 
	C224.325455,98.243271 224.146622,98.303741 223.138977,98.241310 
	C221.741196,98.258362 220.343399,98.275414 218.265884,97.850044 
	C205.961441,97.766998 193.656006,97.749222 181.353226,97.558960 
	C177.909164,97.505676 176.661774,98.908936 176.689590,102.264191 
	C176.783417,113.576210 176.867722,124.892708 176.631256,136.200714 
	C176.547592,140.201874 177.541428,141.716263 181.851730,141.724014 
	C199.490387,141.755707 217.129944,142.087097 234.765976,142.459686 
	C244.354156,142.662262 247.688538,145.315292 250.714294,154.459503 
	C251.182465,155.874374 251.634338,157.294632 251.947769,159.571625 
	C252.181427,165.132065 249.883011,169.595688 245.655762,173.450470 
	C245.457443,173.607666 245.397278,173.806656 245.221161,174.141617 
z"/>
<path fill="#4052B6" opacity="1.000000" stroke="none" 
	d="
M176.041489,215.112549 
	C176.121002,214.824524 176.200531,214.536499 176.537842,213.894531 
	C176.795639,213.540588 176.853256,213.578171 176.853256,213.578171 
	C176.964951,212.969818 177.076630,212.361481 177.759399,211.360779 
	C179.962845,210.086502 181.597092,209.208008 183.227203,208.321869 
	C186.481903,206.552612 189.734360,204.779190 192.837616,203.349228 
	C191.222900,207.392288 192.720596,208.738983 196.450134,209.062531 
	C200.744919,209.435089 205.645096,207.977264 208.883224,212.481323 
	C209.142288,212.841660 210.119827,212.831970 210.738312,212.764267 
	C215.828705,212.207169 220.913147,211.595627 226.025925,211.373398 
	C229.084625,213.162979 232.043777,214.777115 235.171997,215.934204 
	C237.682571,216.862839 240.398132,217.237350 242.553085,217.894531 
	C236.838928,217.955795 231.587173,217.822021 226.352432,218.060822 
	C222.904251,218.218124 219.716415,219.130264 220.913574,223.897812 
	C220.908295,223.921188 220.908875,223.968933 220.572571,224.093353 
	C219.792358,225.803680 219.348419,227.389587 218.679733,228.982620 
	C218.454987,228.989731 218.005493,229.004272 217.600281,229.006958 
	C212.210785,229.696869 207.226486,230.384079 201.246979,231.208511 
	C199.555832,237.870621 193.294937,233.291824 188.258987,233.683228 
	C188.011673,239.709610 184.869080,241.586395 179.367569,240.038467 
	C178.444580,239.778778 177.391800,239.980331 176.344223,239.551773 
	C176.137192,238.021530 175.984940,236.908249 175.832687,235.794983 
	C175.792816,234.514053 175.752945,233.233109 175.863159,231.097229 
	C176.022659,225.199036 176.032074,220.155792 176.041489,215.112549 
z"/>
<path fill="#3E7DC1" opacity="1.000000" stroke="none" 
	d="
M245.974304,173.361771 
	C249.883011,169.595688 252.181427,165.132065 252.140259,158.985214 
	C252.534302,158.222519 252.760773,158.088196 253.141785,158.197845 
	C253.473465,158.653595 253.714447,158.862381 253.994431,159.454712 
	C253.996246,160.544296 253.977997,161.206161 254.002884,161.866409 
	C254.240005,168.156097 255.583054,168.879135 260.889069,165.861145 
	C262.429840,164.984756 264.245361,164.288971 265.992004,164.127396 
	C275.563568,163.241943 284.431458,165.752075 292.687927,170.417480 
	C293.545074,170.901810 293.515686,172.955048 293.897644,174.280334 
	C291.223450,180.766830 288.549225,187.253326 285.190552,193.880554 
	C283.353943,192.875641 281.240387,191.758682 281.205200,190.579727 
	C280.971863,182.761658 277.499207,179.928604 269.458282,179.198730 
	C262.541595,178.570908 255.466019,179.853607 248.454178,180.027023 
	C245.976471,180.088303 243.479431,179.367462 240.996490,178.668198 
	C241.001541,177.885391 241.001297,177.438095 241.001068,176.990784 
	C241.001068,176.990784 241.188477,176.777634 241.708328,176.834900 
	C243.198166,176.061310 244.168137,175.230438 245.138123,174.399567 
	C245.138138,174.399582 245.221161,174.141617 245.456131,174.000214 
	C245.823898,173.714996 245.918289,173.549316 245.974304,173.361771 
z"/>
<path fill="#3B65BB" opacity="1.000000" stroke="none" 
	d="
M283.243958,197.079803 
	C280.213684,200.076660 277.183411,203.073532 273.400269,206.080597 
	C269.338928,207.499466 266.030457,208.908157 262.721954,210.316849 
	C262.635834,208.758652 263.524750,207.828583 263.935150,206.721191 
	C264.507477,205.176865 265.299103,203.341873 264.911835,201.928589 
	C264.587280,200.744064 262.796539,199.317429 261.502655,199.145691 
	C252.356873,197.931915 243.171783,197.014435 233.588409,196.001007 
	C230.576340,195.194962 228.004181,194.269806 225.362640,193.632065 
	C223.838989,193.264206 221.899933,192.744110 220.668076,193.350098 
	C213.655685,196.799576 213.708969,196.907913 209.218567,190.758270 
	C211.624207,188.675415 213.807388,186.839188 216.355911,184.988159 
	C218.760284,184.563629 220.847107,183.647278 222.829788,183.834442 
	C230.266830,184.536484 237.662262,185.666290 245.088440,186.501083 
	C249.565781,187.004425 254.359909,188.396500 258.493103,187.346954 
	C264.069336,185.930969 268.402740,187.229538 272.376129,190.402145 
	C274.612457,192.187759 276.032288,194.995956 277.831879,197.359131 
	C279.631409,197.266251 281.437683,197.173019 283.243958,197.079803 
z"/>
<path fill="#399ECC" opacity="1.000000" stroke="none" 
	d="
M114.181641,152.288635 
	C114.128090,150.086792 114.074539,147.884933 114.136253,145.033173 
	C114.251518,144.383240 114.390549,143.975128 114.726379,143.953827 
	C116.250862,143.089142 117.601784,142.403610 118.601219,141.376175 
	C124.124100,135.698532 130.021530,130.676804 138.155380,129.216171 
	C140.034912,128.878662 142.128281,128.932114 143.741623,128.081680 
	C146.918228,126.407219 147.840744,127.016792 149.367447,130.457870 
	C151.431046,135.109131 153.248306,140.722458 159.594894,142.449280 
	C159.618332,153.599426 159.556870,164.286972 159.185150,175.050705 
	C157.578781,174.751068 156.282654,174.375259 154.988739,173.602417 
	C154.658646,171.136124 154.326355,169.066833 153.992752,166.596710 
	C152.250565,159.869980 150.600403,153.516129 148.668808,147.249039 
	C148.386230,146.332184 146.489212,145.027267 145.804230,145.261520 
	C140.752701,146.989227 138.228836,143.268112 135.233109,140.701874 
	C133.906723,141.141800 132.652374,141.948898 131.439285,141.891052 
	C126.726875,141.666245 124.293335,144.194977 123.409760,148.383057 
	C122.420914,153.070099 119.621292,154.669052 114.909180,153.948120 
	C114.681557,153.908920 114.219727,153.898560 114.219727,153.898560 
	C114.183998,153.726013 114.148262,153.553467 114.194328,152.978882 
	C114.276131,152.576828 114.181641,152.288635 114.181641,152.288635 
z"/>
<path fill="#493AAA" opacity="1.000000" stroke="none" 
	d="
M138.092361,284.967712 
	C137.878250,284.888275 137.664154,284.808807 137.076889,284.449036 
	C136.567841,284.061066 136.417694,283.979797 136.253250,283.924927 
	C136.253250,283.924927 136.120071,283.940704 135.985916,283.552368 
	C134.939789,281.623962 134.289154,279.825623 133.068512,278.590607 
	C128.821487,274.293457 124.376930,270.191498 119.991867,265.644897 
	C119.658073,263.837311 119.339874,262.400177 119.386658,260.943237 
	C120.496803,259.628815 121.241959,258.334229 122.125229,256.833679 
	C122.477066,256.369202 122.732277,256.161682 123.214142,256.327972 
	C123.936653,258.157928 125.001648,259.695587 124.916656,261.166840 
	C124.608986,266.493469 128.986099,266.992157 132.117844,267.377838 
	C133.496262,267.547607 135.342743,263.916870 137.402878,262.008972 
	C140.742691,262.054504 143.793549,261.567596 146.539032,262.271606 
	C151.086197,263.437622 155.436722,265.370514 159.891678,267.425934 
	C159.251053,275.279388 158.733780,282.706268 157.763290,290.073456 
	C157.624924,291.123871 154.997726,292.875336 154.028152,292.589081 
	C151.408752,291.815857 147.802261,290.700073 146.864929,288.669067 
	C144.802246,284.199707 142.020996,283.810944 138.092361,284.967712 
M142.595673,271.998596 
	C142.482422,271.565979 142.369156,271.133392 142.255890,270.700775 
	C141.971390,270.807739 141.686874,270.914673 141.402374,271.021606 
	C141.678314,271.458282 141.954269,271.894928 142.595673,271.998596 
z"/>
<path fill="#395AB6" opacity="1.000000" stroke="none" 
	d="
M233.999237,196.002441 
	C243.171783,197.014435 252.356873,197.931915 261.502655,199.145691 
	C262.796539,199.317429 264.587280,200.744064 264.911835,201.928589 
	C265.299103,203.341873 264.507477,205.176865 263.935150,206.721191 
	C263.524750,207.828583 262.635834,208.758652 262.721954,210.316849 
	C266.030457,208.908157 269.338928,207.499466 273.076447,206.130951 
	C267.488037,212.251511 259.636353,214.662277 250.988358,216.976440 
	C249.436722,216.950775 248.663467,216.985794 247.734222,217.122955 
	C247.380112,217.377670 247.213074,217.558868 247.013794,217.937515 
	C246.950455,218.106293 246.898483,218.463074 246.898483,218.463074 
	C246.396927,218.564270 245.895386,218.665451 244.916473,218.793976 
	C244.439133,218.821304 244.253433,218.890411 244.253433,218.890411 
	C244.043228,218.887314 243.833023,218.884201 243.334686,218.603256 
	C243.046570,218.325424 243.022720,217.857773 243.022720,217.857758 
	C240.398132,217.237350 237.682571,216.862839 235.171997,215.934204 
	C232.043777,214.777115 229.084625,213.162979 225.962158,211.029938 
	C224.600677,208.727280 223.329468,207.140869 221.170349,204.446365 
	C224.264709,204.102295 226.412216,204.069305 228.441498,203.562729 
	C229.712631,203.245422 231.215912,202.480072 231.884079,201.444244 
	C232.917511,199.842133 233.325836,197.836792 233.999237,196.002441 
z"/>
<path fill="#46CFEA" opacity="1.000000" stroke="none" 
	d="
M218.945618,98.292458 
	C220.343399,98.275414 221.741196,98.258362 223.649231,98.453903 
	C224.452072,98.569122 224.744675,98.471756 225.037277,98.374390 
	C227.040253,98.344521 229.043213,98.314651 231.600006,98.727798 
	C236.764114,99.149521 241.374405,99.128235 245.984711,99.106941 
	C246.419235,99.119698 246.853775,99.132462 247.680267,99.544456 
	C249.052689,100.287529 250.033157,100.631371 251.247192,101.228912 
	C257.043182,104.889160 262.566559,108.362556 268.196442,111.653671 
	C269.545807,112.442474 271.249542,112.625031 272.790314,113.086411 
	C272.790314,113.086411 272.924286,113.061150 272.934875,113.494843 
	C273.725983,115.051208 274.434357,116.233261 275.300507,117.285416 
	C277.889618,120.430588 280.540527,123.524879 283.167328,126.639038 
	C282.678680,127.136223 282.190063,127.633408 281.701416,128.130600 
	C280.515656,127.337906 279.293915,126.593460 278.151978,125.742004 
	C276.078308,124.195831 274.052124,122.585999 271.843445,120.730019 
	C270.786957,119.969757 269.893127,119.482224 268.804077,118.782166 
	C268.073395,118.379990 267.537933,118.190323 266.749329,117.880829 
	C265.997467,117.506424 265.498749,117.251839 264.939697,116.651733 
	C262.452026,114.334137 260.162537,112.146629 257.545197,110.471382 
	C255.994736,109.479012 253.937088,109.256844 252.089249,108.755661 
	C247.395996,107.482773 242.748337,105.531242 237.980408,105.159355 
	C230.099655,104.544655 222.125748,105.234688 214.214966,104.864517 
	C205.674820,104.464890 197.248550,104.056198 188.860153,106.482086 
	C179.174774,109.283058 179.119125,109.091766 178.709839,118.828430 
	C178.332916,113.356972 178.297882,108.235367 178.002716,103.128792 
	C177.811325,99.817543 179.204422,98.811493 182.370529,98.875832 
	C191.140457,99.054070 199.915726,99.071312 208.687653,99.000664 
	C212.108643,98.973114 215.526398,98.540543 218.945618,98.292458 
z"/>
<path fill="#3BEBE9" opacity="1.000000" stroke="none" 
	d="
M129.599701,103.918098 
	C127.502449,105.643372 125.405197,107.368645 122.703232,109.200859 
	C121.688744,109.709869 121.278969,110.111954 120.869194,110.514030 
	C120.869194,110.514030 120.786827,110.811623 120.354012,110.708145 
	C120.302010,109.171669 120.513161,107.663757 121.104874,106.323898 
	C121.916931,104.485100 123.017494,102.773712 124.285172,100.867020 
	C125.754555,98.387886 127.044746,96.097862 128.085327,93.699547 
	C129.598495,90.212059 129.259964,87.576347 124.729256,86.862473 
	C123.326088,86.641380 121.682884,86.019531 120.771057,85.016296 
	C119.028084,83.098625 118.157738,79.774574 116.126305,78.908791 
	C114.184578,78.081268 111.245071,79.924011 108.712677,80.079079 
	C104.528793,80.335258 101.465553,81.891319 99.754318,86.204712 
	C98.679657,86.615898 97.841782,86.803093 96.933121,86.686569 
	C96.238884,85.910316 95.615433,85.437782 94.999039,84.578720 
	C96.391571,82.942688 97.669922,81.540916 99.184715,80.475243 
	C102.386818,78.222519 105.712471,76.145416 109.221840,73.742027 
	C112.970139,71.990005 116.484039,70.492233 120.380051,69.061638 
	C131.419296,71.224289 137.660263,78.054428 140.993469,88.417267 
	C140.976898,90.223030 140.961792,91.612045 140.744354,93.217575 
	C140.390106,93.997276 140.238205,94.560471 140.086304,95.123657 
	C140.086304,95.123657 140.057846,95.055229 139.863342,95.175049 
	C139.457993,95.571892 139.247162,95.848915 139.036346,96.125946 
	C139.036346,96.125946 139.047241,96.053177 138.744171,96.092224 
	C137.308990,97.131966 136.176880,98.132652 135.044769,99.133347 
	C135.044769,99.133339 135.045441,99.058876 134.732864,99.058487 
	C133.278854,99.688950 132.137421,100.319801 130.785980,101.163254 
	C130.406296,101.935844 130.236618,102.495834 130.066956,103.055832 
	C130.066956,103.055832 130.004242,103.027138 129.901230,103.101044 
	C129.522385,103.355911 129.456223,103.603630 129.599701,103.918098 
z"/>
<path fill="#3989C3" opacity="1.000000" stroke="none" 
	d="
M154.986511,173.999435 
	C156.282654,174.375259 157.578781,174.751068 159.249893,175.515228 
	C159.423233,181.940659 159.221619,187.977768 158.618683,194.011536 
	C157.147141,194.006882 156.076935,194.005569 154.992310,193.634918 
	C152.374878,189.791351 149.836792,186.264206 147.095856,182.902435 
	C146.703445,182.421143 145.321182,182.628342 144.413300,182.706345 
	C140.395966,183.051544 136.385742,183.478333 132.370499,183.849091 
	C130.785156,183.995468 129.180176,183.978531 127.607285,184.200272 
	C123.723755,184.747742 119.853615,185.390228 115.979645,185.653564 
	C115.507866,183.905258 115.034546,182.497925 114.561218,181.090576 
	C114.461693,176.689438 114.362167,172.288315 114.621490,167.427460 
	C115.323189,166.980728 115.666023,166.993713 116.006317,167.461243 
	C116.007233,169.733063 115.699234,171.625854 116.115379,173.343155 
	C116.432777,174.652954 117.582191,176.627853 118.515305,176.718201 
	C119.908142,176.853073 121.514603,175.719025 122.884644,174.885590 
	C124.228432,174.068161 125.282738,172.309250 126.651070,172.080124 
	C131.957520,171.191574 137.334030,170.701691 142.696014,170.183075 
	C143.617355,170.093964 144.616669,170.521591 145.542847,170.824097 
	C148.699677,171.855133 151.839935,172.936981 154.986511,173.999435 
z"/>
<path fill="#3896CA" opacity="1.000000" stroke="none" 
	d="
M116.008865,167.006714 
	C115.666023,166.993713 115.323189,166.980728 114.723038,166.970245 
	C114.401978,166.182907 114.338219,165.393082 114.542160,164.243378 
	C114.683372,163.646378 114.556877,163.409256 114.430389,163.172134 
	C114.325638,162.638123 114.220886,162.104111 114.330338,161.131760 
	C114.438469,160.128769 114.332397,159.564117 114.226326,158.999466 
	C114.182175,157.940872 114.138023,156.882294 114.340263,155.292053 
	C114.791710,154.518143 114.975090,154.260452 115.136795,153.987335 
	C119.621292,154.669052 122.420914,153.070099 123.409760,148.383057 
	C124.293335,144.194977 126.726875,141.666245 131.439285,141.891052 
	C132.652374,141.948898 133.906723,141.141800 135.233109,140.701874 
	C138.228836,143.268112 140.752701,146.989227 145.804230,145.261520 
	C146.489212,145.027267 148.386230,146.332184 148.668808,147.249039 
	C150.600403,153.516129 152.250565,159.869980 153.625778,166.583008 
	C151.882126,166.161896 149.653854,165.635895 149.275345,164.495789 
	C147.747162,159.892746 143.847092,158.898651 140.075577,158.213409 
	C137.597107,157.763107 134.634842,159.505066 132.298386,158.836151 
	C126.465988,157.166397 123.972870,160.304474 121.859352,164.697968 
	C121.378014,165.698563 120.722313,166.615280 120.188606,167.501312 
	C118.615250,167.315140 117.312057,167.160919 116.008865,167.006714 
z"/>
<path fill="#3E6EBE" opacity="1.000000" stroke="none" 
	d="
M283.521606,196.931824 
	C281.437683,197.173019 279.631409,197.266251 277.831879,197.359131 
	C276.032288,194.995956 274.612457,192.187759 272.376129,190.402145 
	C268.402740,187.229538 264.069336,185.930969 258.493103,187.346954 
	C254.359909,188.396500 249.565781,187.004425 245.088440,186.501083 
	C237.662262,185.666290 230.266830,184.536484 222.829788,183.834442 
	C220.847107,183.647278 218.760284,184.563629 216.357300,184.565613 
	C215.583740,179.315201 217.093704,176.910233 222.500870,178.487305 
	C223.363480,178.738907 224.790436,177.055588 225.956482,176.266785 
	C226.428207,176.296646 226.899902,176.326508 227.868347,176.790558 
	C232.477432,178.501740 236.331512,181.611649 240.991211,179.003693 
	C243.479431,179.367462 245.976471,180.088303 248.454178,180.027023 
	C255.466019,179.853607 262.541595,178.570908 269.458282,179.198730 
	C277.499207,179.928604 280.971863,182.761658 281.205200,190.579727 
	C281.240387,191.758682 283.353943,192.875641 284.919434,194.065155 
	C284.821625,195.000656 284.310455,195.892258 283.521606,196.931824 
z"/>
<path fill="#3B2A8A" opacity="1.000000" stroke="none" 
	d="
M175.552551,235.980591 
	C175.984940,236.908249 176.137192,238.021530 176.260651,240.003204 
	C176.267044,243.900711 176.302231,246.929840 176.280731,250.386658 
	C176.248962,252.536819 176.273880,254.259293 176.250610,256.389771 
	C176.470932,259.866425 176.739426,262.935028 177.001953,266.470520 
	C176.999420,270.102020 176.706055,273.303589 177.094315,276.420258 
	C177.444031,279.227509 178.540802,281.941681 179.308090,284.696899 
	C181.595154,283.597565 183.833054,282.371216 186.192184,281.458069 
	C187.211990,281.063354 188.482178,281.315521 189.638626,281.273804 
	C189.657776,282.430939 189.843491,283.618042 189.642258,284.735474 
	C189.487198,285.596527 188.845978,286.369995 188.420929,287.182404 
	C188.697372,287.587494 188.973801,287.992584 189.250229,288.397705 
	C191.060287,287.447144 192.975769,286.652954 194.660675,285.516815 
	C199.773590,282.069092 204.867706,278.584534 209.828705,274.923981 
	C212.694046,272.809784 215.288559,270.328583 218.013702,267.594757 
	C218.286499,261.114075 218.550598,255.051193 218.837250,248.648834 
	C218.880127,247.856216 218.900467,247.403061 219.138855,246.854553 
	C219.799301,246.333450 220.241669,245.907700 220.684036,245.481949 
	C220.707596,253.363708 220.775833,261.245972 220.690674,269.126526 
	C220.681396,269.984467 219.997696,271.135345 219.271927,271.640839 
	C205.670502,281.114319 192.016510,290.512360 178.362320,299.909882 
	C178.117188,300.078613 177.735046,300.048248 176.793488,300.233246 
	C176.330429,298.432312 175.481445,296.601440 175.442963,294.753693 
	C175.052353,275.990784 174.784485,257.225250 174.532761,238.459763 
	C174.522537,237.698700 175.014435,236.930878 175.552551,235.980591 
z"/>
<path fill="#3E6EBE" opacity="1.000000" stroke="none" 
	d="
M155.006714,194.004272 
	C156.076935,194.005569 157.147141,194.006882 158.762177,194.389496 
	C159.565338,198.189819 159.823669,201.608871 160.081985,205.027908 
	C160.112030,205.466095 160.142090,205.904297 160.064148,206.927887 
	C159.994431,207.686264 160.032700,207.859238 160.070969,208.032227 
	C160.119888,208.431046 160.168793,208.829849 160.017639,209.746811 
	C159.541946,210.510559 159.266312,210.756180 158.592117,211.003021 
	C157.130661,211.006516 156.067764,211.008759 154.941406,210.670380 
	C153.144638,208.384491 151.689255,206.015976 149.585632,204.634705 
	C148.044662,203.622879 144.646255,202.943207 143.829453,203.795731 
	C141.429459,206.300644 138.790802,206.060562 136.591766,204.902481 
	C127.783981,200.263992 120.909119,201.373428 116.722275,211.580917 
	C115.923485,210.149948 115.601791,209.573669 115.215927,208.696991 
	C114.950058,207.623108 114.748360,206.849640 114.546661,206.076157 
	C114.523605,203.666534 114.500542,201.256912 114.950653,198.409973 
	C128.403198,193.180145 141.356979,191.868973 154.639084,198.839539 
	C154.789322,196.863464 154.898026,195.433868 155.006714,194.004272 
z"/>
<path fill="#3989C3" opacity="1.000000" stroke="none" 
	d="
M294.081543,174.018951 
	C293.515686,172.955048 293.545074,170.901810 292.687927,170.417480 
	C284.431458,165.752075 275.563568,163.241943 265.992004,164.127396 
	C264.245361,164.288971 262.429840,164.984756 260.889069,165.861145 
	C255.583054,168.879135 254.240005,168.156097 254.002884,161.866409 
	C253.977997,161.206161 253.996246,160.544296 254.396378,159.443207 
	C258.262360,157.975845 261.667480,156.454178 265.203796,156.032410 
	C271.072327,155.332489 277.146881,152.137299 282.853851,157.078201 
	C284.974030,158.913788 286.474274,157.475845 287.355347,155.091370 
	C290.135193,156.161377 293.238586,158.916138 293.038025,152.654877 
	C293.038422,150.487259 293.029816,148.756851 293.005249,146.656616 
	C292.656586,144.866608 292.323975,143.446381 291.991333,142.026169 
	C293.199768,145.514938 295.324677,148.977936 295.423676,152.497910 
	C295.622528,159.568008 294.715881,166.669189 294.081543,174.018951 
z"/>
<path fill="#3E7DC1" opacity="1.000000" stroke="none" 
	d="
M154.992310,193.634918 
	C154.898026,195.433868 154.789322,196.863464 154.639084,198.839539 
	C141.356979,191.868973 128.403198,193.180145 115.105484,197.986771 
	C114.727814,197.804321 114.668488,197.607758 114.831635,196.942078 
	C114.936203,195.642899 114.818314,194.812805 114.700424,193.982727 
	C114.619911,193.540894 114.539406,193.099075 114.807770,192.191345 
	C114.981857,190.479691 114.807083,189.233902 114.632294,187.988129 
	C114.560020,187.551407 114.487747,187.114700 114.743492,186.351776 
	C115.373436,186.007278 115.675629,185.996933 115.978088,185.994507 
	C119.853615,185.390228 123.723755,184.747742 127.607285,184.200272 
	C129.180176,183.978531 130.785156,183.995468 132.370499,183.849091 
	C136.385742,183.478333 140.395966,183.051544 144.413300,182.706345 
	C145.321182,182.628342 146.703445,182.421143 147.095856,182.902435 
	C149.836792,186.264206 152.374878,189.791351 154.992310,193.634918 
z"/>
<path fill="#3F9FBC" opacity="1.000000" stroke="none" 
	d="
M218.605743,98.071243 
	C215.526398,98.540543 212.108643,98.973114 208.687653,99.000664 
	C199.915726,99.071312 191.140457,99.054070 182.370529,98.875832 
	C179.204422,98.811493 177.811325,99.817543 178.002716,103.128792 
	C178.297882,108.235367 178.332916,113.356972 178.696899,119.237305 
	C178.920395,121.681984 178.925293,123.361549 178.920120,125.477493 
	C178.880829,128.048431 179.068649,130.213242 178.776382,132.311157 
	C178.199280,136.453979 180.118042,138.457932 184.248016,139.305603 
	C185.681366,139.682068 186.840759,139.839371 188.248383,139.999130 
	C188.496628,140.001572 188.993011,139.990189 189.462036,140.000183 
	C199.960205,140.016418 209.989365,140.022644 220.414459,140.034241 
	C221.866272,140.036377 222.922165,140.033142 224.382401,140.034592 
	C225.864838,140.035065 226.942932,140.030838 228.485596,140.032333 
	C234.298172,140.385315 239.646179,140.732574 245.055420,141.413513 
	C247.068893,143.836044 249.021118,145.924927 251.035492,148.360886 
	C251.738815,150.473129 252.379959,152.238281 253.018188,154.402802 
	C253.014236,155.866714 253.013184,156.931274 253.012131,157.995834 
	C252.760773,158.088196 252.534302,158.222519 252.213242,158.555603 
	C251.634338,157.294632 251.182465,155.874374 250.714294,154.459503 
	C247.688538,145.315292 244.354156,142.662262 234.765976,142.459686 
	C217.129944,142.087097 199.490387,141.755707 181.851730,141.724014 
	C177.541428,141.716263 176.547592,140.201874 176.631256,136.200714 
	C176.867722,124.892708 176.783417,113.576210 176.689590,102.264191 
	C176.661774,98.908936 177.909164,97.505676 181.353226,97.558960 
	C193.656006,97.749222 205.961441,97.766998 218.605743,98.071243 
z"/>
<path fill="#4062B8" opacity="1.000000" stroke="none" 
	d="
M155.004883,211.010986 
	C156.067764,211.008759 157.130661,211.006516 158.569626,211.468506 
	C158.896774,216.618423 158.847839,221.304092 158.492935,226.061432 
	C157.037949,226.909561 155.888947,227.686035 155.875366,227.695206 
	C152.229797,225.600449 149.511780,223.639465 146.496735,222.402435 
	C142.275726,220.670639 137.708664,222.243454 133.484543,221.903793 
	C126.923912,221.376251 120.798851,220.394989 115.241653,224.711746 
	C115.016785,224.015030 114.839531,223.561340 114.662277,223.107666 
	C114.607254,221.051834 114.552231,218.996002 114.709061,216.547699 
	C114.920929,216.155212 115.034401,216.213943 115.170822,216.369720 
	C115.510788,216.718079 115.738853,216.875046 116.231659,217.165283 
	C118.681007,215.432709 118.896225,211.629852 123.730171,212.340424 
	C132.564682,213.639053 141.603149,213.489838 150.494141,214.495956 
	C153.823654,214.872742 155.233475,214.445435 155.004883,211.010986 
z"/>
<path fill="#58F3EA" opacity="1.000000" stroke="none" 
	d="
M130.033569,49.239540 
	C138.871414,41.910053 147.709244,34.580570 157.257477,27.195852 
	C158.629639,28.451788 159.805420,29.742521 159.858505,31.077890 
	C160.030182,35.395508 159.789276,39.729527 159.339325,44.039215 
	C157.980865,44.089481 156.618423,43.763271 156.060043,44.289783 
	C152.308350,47.827419 149.773483,46.432415 146.862900,41.367294 
	C144.977646,43.029522 143.978180,45.224979 142.423065,46.906570 
	C140.908051,48.544792 138.824493,49.657246 136.703232,51.176025 
	C133.606201,54.230637 130.796524,57.109764 127.733994,60.127907 
	C126.987328,60.842419 126.493484,61.417915 125.607559,61.998016 
	C122.110474,62.615162 119.005470,63.227703 115.969574,63.507256 
	C118.723129,60.612831 121.444984,58.089146 124.079971,55.477795 
	C126.120850,53.455231 128.053055,51.323017 130.033569,49.239540 
z"/>
<path fill="#4564B4" opacity="1.000000" stroke="none" 
	d="
M225.634323,176.040985 
	C224.790436,177.055588 223.363480,178.738907 222.500870,178.487305 
	C217.093704,176.910233 215.583740,179.315201 215.991943,184.580414 
	C213.807388,186.839188 211.624207,188.675415 208.986633,191.003906 
	C207.258667,192.880447 206.181900,194.549225 204.672836,195.593018 
	C200.881943,198.215057 196.895676,200.554642 192.987747,203.007477 
	C189.734360,204.779190 186.481903,206.552612 183.227203,208.321869 
	C181.597092,209.208008 179.962845,210.086502 177.986084,210.954803 
	C178.695251,208.647781 179.147858,205.627457 180.899948,204.179092 
	C192.186005,194.849228 203.582642,185.626602 215.381088,176.965607 
	C217.715179,175.252213 221.952515,176.131531 225.634323,176.040985 
z"/>
<path fill="#3E6ABB" opacity="1.000000" stroke="none" 
	d="
M115.034401,216.213943 
	C115.034401,216.213943 114.920929,216.155212 114.860641,216.134689 
	C114.704926,215.640610 114.609512,215.167053 114.656509,214.227005 
	C114.890388,213.469971 114.822212,213.226654 114.594391,213.030579 
	C114.539558,211.979843 114.484726,210.929108 114.677139,209.483795 
	C114.924400,209.089203 115.280106,208.997391 115.280106,208.997391 
	C115.601791,209.573669 115.923485,210.149948 116.722275,211.580917 
	C120.909119,201.373428 127.783981,200.263992 136.591766,204.902481 
	C138.790802,206.060562 141.429459,206.300644 143.829453,203.795731 
	C144.646255,202.943207 148.044662,203.622879 149.585632,204.634705 
	C151.689255,206.015976 153.144638,208.384491 154.941406,210.670380 
	C155.233475,214.445435 153.823654,214.872742 150.494141,214.495956 
	C141.603149,213.489838 132.564682,213.639053 123.730171,212.340424 
	C118.896225,211.629852 118.681007,215.432709 116.110817,216.989166 
	C115.562538,216.415543 115.324081,216.272141 115.034401,216.213943 
z"/>
<path fill="#40A8CE" opacity="1.000000" stroke="none" 
	d="
M159.509979,141.986679 
	C153.248306,140.722458 151.431046,135.109131 149.367447,130.457870 
	C147.840744,127.016792 146.918228,126.407219 143.741623,128.081680 
	C142.128281,128.932114 140.034912,128.878662 138.155380,129.216171 
	C130.021530,130.676804 124.124100,135.698532 118.601219,141.376175 
	C117.601784,142.403610 116.250862,143.089142 114.612061,143.713715 
	C113.915993,143.064774 113.670074,142.634613 113.424156,142.204468 
	C114.012016,140.726669 114.196976,138.805359 115.254547,137.844620 
	C121.156746,132.482925 127.270142,127.353706 133.751068,122.238968 
	C134.797256,122.889816 135.403702,123.446724 136.372284,123.990570 
	C140.650085,123.650070 144.586853,122.900848 148.476379,123.095467 
	C154.113724,123.377541 152.163223,129.970383 155.502167,133.037704 
	C157.017776,130.364960 158.254730,128.183624 159.587311,126.458801 
	C159.625290,131.939102 159.567627,136.962891 159.509979,141.986679 
z"/>
<path fill="#4646AB" opacity="1.000000" stroke="none" 
	d="
M176.298798,255.981750 
	C176.273880,254.259293 176.248962,252.536819 176.667938,250.398468 
	C184.420181,250.223358 190.391174,243.585022 198.133286,245.876801 
	C198.599182,246.014709 199.280655,245.284897 199.899734,245.066162 
	C206.671524,242.673508 213.450867,240.302246 220.331970,238.250092 
	C220.550751,239.238922 220.665710,239.902832 220.780670,240.566742 
	C220.780838,241.112701 220.780991,241.658661 220.343216,242.631409 
	C219.577103,244.355423 219.248947,245.652649 218.920776,246.949890 
	C218.900467,247.403061 218.880127,247.856216 218.457352,248.656067 
	C212.718521,249.823685 207.371368,250.580826 202.048218,251.480072 
	C193.456772,252.931442 184.881119,254.476349 176.298798,255.981750 
z"/>
<path fill="#383994" opacity="1.000000" stroke="none" 
	d="
M158.798920,225.989761 
	C158.847839,221.304092 158.896774,216.618423 158.968201,211.467270 
	C159.266312,210.756180 159.541946,210.510559 159.993515,210.048187 
	C160.607391,215.826035 161.376205,221.818008 161.424179,227.815735 
	C161.602631,250.128143 161.553192,272.442474 161.553284,294.756073 
	C161.553284,296.183899 161.247803,297.611725 160.898010,300.668701 
	C152.765945,295.201874 145.586166,290.375214 138.249390,285.258148 
	C142.020996,283.810944 144.802246,284.199707 146.864929,288.669067 
	C147.802261,290.700073 151.408752,291.815857 154.028152,292.589081 
	C154.997726,292.875336 157.624924,291.123871 157.763290,290.073456 
	C158.733780,282.706268 159.251053,275.279388 159.919281,266.961029 
	C159.904877,260.697845 159.884445,255.345230 159.894135,249.529205 
	C159.879623,244.685455 159.834991,240.305084 159.748077,235.527618 
	C159.403503,232.083588 159.101212,229.036682 158.798920,225.989761 
z"/>
<path fill="#49BBDD" opacity="1.000000" stroke="none" 
	d="
M292.014648,141.713684 
	C292.323975,143.446381 292.656586,144.866608 292.656647,146.583130 
	C291.558746,146.109512 290.711151,145.404648 290.041779,144.558777 
	C286.427032,139.990997 284.554352,133.769226 277.759735,131.757751 
	C276.329681,130.350845 275.166687,129.169846 273.944183,127.629845 
	C273.258514,125.181473 272.632294,123.092110 272.006104,121.002747 
	C274.052124,122.585999 276.078308,124.195831 278.151978,125.742004 
	C279.293915,126.593460 280.515656,127.337906 281.701416,128.130600 
	C282.190063,127.633408 282.678680,127.136223 283.167328,126.639038 
	C280.540527,123.524879 277.889618,120.430588 275.300507,117.285416 
	C274.434357,116.233261 273.725983,115.051208 272.932007,113.562943 
	C282.383484,120.502693 288.321838,130.198730 292.014648,141.713684 
z"/>
<path fill="#39D5E8" opacity="1.000000" stroke="none" 
	d="
M123.994431,101.007729 
	C123.017494,102.773712 121.916931,104.485100 121.104874,106.323898 
	C120.513161,107.663757 120.302010,109.171669 120.200546,110.725021 
	C115.940437,114.442459 111.400986,118.039528 106.332787,121.816803 
	C105.522087,122.232117 105.240128,122.467232 104.958176,122.702347 
	C104.043526,123.512672 103.128883,124.322990 101.508224,125.124329 
	C100.524719,125.072380 100.247223,125.029396 100.040039,124.642014 
	C102.071335,120.536179 104.032318,116.774742 106.285042,112.845795 
	C110.162430,108.672203 116.068726,106.991867 117.917480,101.157745 
	C118.217606,100.210663 119.929024,99.710800 121.186119,99.233688 
	C122.254234,99.978012 123.124336,100.492874 123.994431,101.007729 
z"/>
<path fill="#64CFD7" opacity="1.000000" stroke="none" 
	d="
M52.024002,110.153091 
	C56.368633,106.474190 60.586323,102.631561 65.081146,99.146347 
	C79.960060,87.609467 94.938934,76.201485 110.323570,64.739975 
	C110.767693,64.735901 111.095589,65.097908 110.995499,65.421021 
	C107.934151,68.495857 104.972893,71.247574 101.826065,74.286179 
	C95.769150,79.054871 89.897797,83.536674 83.715393,88.158936 
	C80.263268,90.871651 77.122192,93.443909 73.618813,96.029770 
	C69.487991,99.003807 65.719482,101.964218 61.590195,104.947762 
	C58.480721,107.294739 55.732025,109.618584 52.815559,111.928886 
	C52.647789,111.915344 52.314655,111.866989 52.294006,111.575806 
	C52.190239,110.907440 52.107121,110.530266 52.024002,110.153091 
z"/>
<path fill="#49BBDD" opacity="1.000000" stroke="none" 
	d="
M136.010147,124.003632 
	C135.403702,123.446724 134.797256,122.889816 134.036819,122.059174 
	C134.426727,121.221046 134.970612,120.656647 136.036911,120.082779 
	C137.052139,119.795555 137.544983,119.517815 138.037811,119.240082 
	C138.243942,119.036263 138.450058,118.832451 139.087952,118.332275 
	C139.726089,117.953674 139.860062,117.807747 139.921631,117.598152 
	C145.586914,112.266663 151.212540,106.891418 156.976135,101.668404 
	C157.581787,101.119545 159.000854,101.468292 160.058762,102.072952 
	C159.950882,104.816498 159.826782,106.887672 159.327911,109.013779 
	C158.302856,110.721268 157.472031,112.328712 157.045105,114.037094 
	C156.421616,116.532066 156.088196,119.099518 155.631119,121.636078 
	C155.128906,121.651779 154.626709,121.667480 154.124512,121.683189 
	C153.367050,120.499550 152.859070,118.968338 151.798431,118.207108 
	C149.800980,116.773514 146.422577,114.241066 145.489731,114.883385 
	C141.926147,117.337120 139.107178,120.872307 136.010147,124.003632 
z"/>
<path fill="#4FE0DA" opacity="1.000000" stroke="none" 
	d="
M159.707336,44.057228 
	C159.789276,39.729527 160.030182,35.395508 159.858505,31.077890 
	C159.805420,29.742521 158.629639,28.451788 157.584473,27.087421 
	C157.898087,25.751921 158.595093,24.469616 159.292084,23.187311 
	C159.870560,23.626593 160.449020,24.065872 161.027496,24.505152 
	C161.027496,29.920774 161.003860,35.336521 161.032379,40.751991 
	C161.092651,52.194714 161.136002,63.637863 161.282745,75.079597 
	C161.328308,78.632568 160.523132,81.290314 157.076202,83.278679 
	C152.684784,85.811874 148.719437,89.083702 144.444412,91.807587 
	C145.537231,90.061432 146.756058,88.544823 148.274323,86.858398 
	C150.158966,85.525803 151.664444,84.229614 153.344711,83.226028 
	C157.860596,80.528793 160.230392,76.891731 160.027176,71.376656 
	C159.691895,62.278606 159.791199,53.164543 159.707336,44.057228 
z"/>
<path fill="#383994" opacity="1.000000" stroke="none" 
	d="
M114.513657,223.544189 
	C114.839531,223.561340 115.016785,224.015030 115.183235,225.154968 
	C115.203209,228.199478 115.233978,230.557739 115.208282,233.385788 
	C115.208946,238.237732 115.266068,242.619873 115.276184,247.440948 
	C115.576553,252.311935 115.611404,256.802307 116.422363,261.147858 
	C116.755173,262.931274 118.762085,264.402252 120.007477,266.015350 
	C124.376930,270.191498 128.821487,274.293457 133.068512,278.590607 
	C134.289154,279.825623 134.939789,281.623962 135.965942,283.488342 
	C129.668747,279.170654 123.076210,274.749329 116.968880,269.736816 
	C115.371277,268.425629 114.650948,265.289703 114.604172,262.970093 
	C114.342148,249.977310 114.409904,236.977890 114.513657,223.544189 
z"/>
<path fill="#383994" opacity="1.000000" stroke="none" 
	d="
M159.702682,108.958855 
	C159.826782,106.887672 159.950882,104.816498 160.153778,102.418999 
	C160.462204,103.850662 160.892990,105.608810 160.891495,107.366600 
	C160.866425,136.759659 160.787582,166.152664 160.719818,195.545685 
	C160.712769,198.603012 160.700058,201.660324 160.385986,204.872772 
	C159.823669,201.608871 159.565338,198.189819 159.163498,194.392822 
	C159.221619,187.977768 159.423233,181.940659 159.560120,175.439026 
	C159.556870,164.286972 159.618332,153.599426 159.594894,142.449280 
	C159.567627,136.962891 159.625290,131.939102 159.678986,126.000000 
	C159.692871,120.732216 159.710724,116.379738 159.775711,111.764923 
	C159.800613,111.326271 159.778397,111.149971 159.804718,110.637848 
	C159.803070,109.854294 159.752884,109.406578 159.702682,108.958855 
z"/>
<path fill="#64CFD7" opacity="1.000000" stroke="none" 
	d="
M85.240089,137.285919 
	C76.729301,143.458130 68.252068,149.677521 59.685383,155.771133 
	C57.391544,157.402771 54.824730,158.650635 52.341919,159.387421 
	C52.564178,154.794281 52.827751,150.888428 53.304794,146.996902 
	C53.518265,147.011230 53.947117,147.031845 53.950066,147.400482 
	C53.948631,148.506363 53.944248,149.243607 53.724911,150.244629 
	C53.828068,152.281296 54.146179,154.054199 54.675903,157.006470 
	C57.812016,154.897537 59.918209,153.481186 62.332321,151.912933 
	C67.426521,148.172623 72.212807,144.584213 76.999542,140.997894 
	C77.000000,141.000000 76.995911,140.998215 77.300705,140.933136 
	C78.103622,140.265884 78.601746,139.663727 79.421524,139.049408 
	C80.495010,138.693115 81.246841,138.348999 82.203186,137.882706 
	C82.664543,137.564331 82.867493,137.322861 83.340973,137.027023 
	C84.097687,136.999481 84.529991,136.981018 85.032242,137.042969 
	C85.102188,137.123383 85.240089,137.285919 85.240089,137.285919 
z"/>
<path fill="#3E7DC1" opacity="1.000000" stroke="none" 
	d="
M53.091324,146.982574 
	C52.827751,150.888428 52.564178,154.794281 52.208107,159.116211 
	C51.909523,143.276672 51.703442,127.021027 51.760681,110.459244 
	C52.107121,110.530266 52.190239,110.907440 52.218323,112.050468 
	C52.430691,118.899162 52.698101,124.981995 52.957943,131.379242 
	C52.959797,132.114883 52.969219,132.536102 52.963478,133.361908 
	C52.968204,134.842300 52.988102,135.918137 52.995537,137.448242 
	C53.019161,140.929199 53.055241,143.955887 53.091324,146.982574 
z"/>
<path fill="#49BBDD" opacity="1.000000" stroke="none" 
	d="
M272.679443,112.774323 
	C271.249542,112.625031 269.545807,112.442474 268.196442,111.653671 
	C262.566559,108.362556 257.043182,104.889160 251.605835,101.246307 
	C252.448288,101.023499 253.165680,101.036980 253.883072,101.050461 
	C260.111572,104.854378 266.340088,108.658302 272.679443,112.774323 
z"/>
<path fill="#383994" opacity="1.000000" stroke="none" 
	d="
M242.553085,217.894531 
	C243.022720,217.857773 243.046570,218.325424 243.022583,218.558167 
	C238.083328,219.068008 233.170578,219.481003 228.251907,219.570892 
	C225.332047,219.624222 222.944687,220.075104 221.697845,223.621124 
	C221.309204,223.935303 220.918854,223.874435 220.918854,223.874435 
	C219.716415,219.130264 222.904251,218.218124 226.352432,218.060822 
	C231.587173,217.822021 236.838928,217.955795 242.553085,217.894531 
z"/>
<path fill="#64CFD7" opacity="1.000000" stroke="none" 
	d="
M129.719696,49.338730 
	C128.053055,51.323017 126.120850,53.455231 124.079971,55.477795 
	C121.444984,58.089146 118.723129,60.612831 115.618240,63.553467 
	C113.830399,64.321075 112.462990,64.709496 111.095589,65.097908 
	C111.095589,65.097908 110.767693,64.735901 110.607437,64.551605 
	C116.766724,59.390850 123.086266,54.414387 129.719696,49.338730 
z"/>
<path fill="#47F8EF" opacity="1.000000" stroke="none" 
	d="
M147.974884,87.028221 
	C146.756058,88.544823 145.537231,90.061432 144.183838,91.879135 
	C144.024277,92.504799 143.873779,92.753365 143.012390,92.980774 
	C141.933578,93.024094 141.440125,93.012573 140.946686,93.001060 
	C140.961792,91.612045 140.976898,90.223030 141.320221,88.365067 
	C143.097122,86.930634 144.545822,85.965157 146.298462,85.070984 
	C147.059921,85.770943 147.517395,86.399582 147.974884,87.028221 
z"/>
<path fill="#4564B4" opacity="1.000000" stroke="none" 
	d="
M240.996490,178.668198 
	C236.331512,181.611649 232.477432,178.501740 228.189026,176.949554 
	C232.038620,176.808136 236.064255,176.941910 240.545486,177.033234 
	C241.001297,177.438095 241.001541,177.885391 240.996490,178.668198 
z"/>
<path fill="#3F9FBC" opacity="1.000000" stroke="none" 
	d="
M245.634216,98.897697 
	C241.374405,99.128235 236.764114,99.149521 232.021790,98.799797 
	C236.354416,98.515335 240.819077,98.601898 245.634216,98.897697 
z"/>
<path fill="#3B2A8A" opacity="1.000000" stroke="none" 
	d="
M175.874481,215.450333 
	C176.032074,220.155792 176.022659,225.199036 175.912506,230.715347 
	C175.776978,226.054977 175.742218,220.921555 175.874481,215.450333 
z"/>
<path fill="#42AED6" opacity="1.000000" stroke="none" 
	d="
M96.380753,129.445786 
	C94.032639,131.231735 91.684525,133.017670 88.779419,134.916504 
	C88.222420,135.029388 87.799965,134.945633 87.940231,134.632568 
	C90.705154,132.524658 93.329826,130.729813 96.060844,129.062866 
	C96.167191,129.190735 96.380745,129.445786 96.380753,129.445786 
z"/>
<path fill="#3B2A8A" opacity="1.000000" stroke="none" 
	d="
M220.913574,223.897812 
	C220.918854,223.874435 221.309204,223.935303 221.503662,223.960693 
	C221.553253,229.325668 221.408386,234.665237 221.022095,240.285767 
	C220.665710,239.902832 220.550751,239.238922 220.459000,237.884735 
	C220.424789,236.432846 220.367355,235.671234 220.445633,234.539154 
	C220.605728,232.848755 220.630096,231.528793 220.739227,229.765808 
	C220.852280,227.538177 220.880569,225.753555 220.908875,223.968933 
	C220.908875,223.968933 220.908295,223.921188 220.913574,223.897812 
z"/>
<path fill="#493AAA" opacity="1.000000" stroke="none" 
	d="
M219.138855,246.854553 
	C219.248947,245.652649 219.577103,244.355423 220.219711,243.023056 
	C220.633194,243.538589 220.732239,244.089249 220.757660,245.060944 
	C220.241669,245.907700 219.799301,246.333450 219.138855,246.854553 
z"/>
<path fill="#4FE0DA" opacity="1.000000" stroke="none" 
	d="
M130.995987,100.950653 
	C132.137421,100.319801 133.278854,99.688950 134.768158,99.070351 
	C133.926605,100.064323 132.737198,101.046043 131.284103,101.790939 
	C131.012283,101.352959 131.004135,101.151802 130.995987,100.950653 
z"/>
<path fill="#42AED6" opacity="1.000000" stroke="none" 
	d="
M99.969727,124.986412 
	C100.247223,125.029396 100.524719,125.072380 101.212769,125.211182 
	C100.078423,126.592705 98.533516,127.878395 96.684677,129.304932 
	C96.380745,129.445786 96.167191,129.190735 96.238770,128.803925 
	C97.530136,127.273560 98.749931,126.129982 99.969727,124.986412 
z"/>
<path fill="#3E6EBE" opacity="1.000000" stroke="none" 
	d="
M115.979645,185.653564 
	C115.675629,185.996933 115.373436,186.007278 114.844788,186.031189 
	C114.524521,184.656525 114.430969,183.276230 114.449310,181.493256 
	C115.034546,182.497925 115.507866,183.905258 115.979645,185.653564 
z"/>
<path fill="#4FE0DA" opacity="1.000000" stroke="none" 
	d="
M135.300507,99.080139 
	C136.176880,98.132652 137.308990,97.131966 138.778534,96.105377 
	C137.929398,97.061958 136.742828,98.044441 135.300507,99.080139 
z"/>
<path fill="#3F9FBC" opacity="1.000000" stroke="none" 
	d="
M253.654648,100.783768 
	C253.165680,101.036980 252.448288,101.023499 251.372253,100.992615 
	C250.033157,100.631371 249.052689,100.287529 247.996979,99.623314 
	C249.756561,99.707649 251.591400,100.112366 253.654648,100.783768 
z"/>
<path fill="#3E6EBE" opacity="1.000000" stroke="none" 
	d="
M114.505638,188.379669 
	C114.807083,189.233902 114.981857,190.479691 114.915924,191.867279 
	C114.576462,190.929810 114.477722,189.850510 114.505638,188.379669 
z"/>
<path fill="#4FE0DA" opacity="1.000000" stroke="none" 
	d="
M140.744339,93.217575 
	C141.440125,93.012573 141.933578,93.024094 142.796997,93.045425 
	C142.311813,93.732361 141.456696,94.409485 140.343933,95.105133 
	C140.238205,94.560471 140.390106,93.997276 140.744339,93.217575 
z"/>
<path fill="#4564B4" opacity="1.000000" stroke="none" 
	d="
M244.835907,174.489319 
	C244.168137,175.230438 243.198166,176.061310 241.849518,176.849182 
	C242.491806,176.063797 243.512741,175.321442 244.835907,174.489319 
z"/>
<path fill="#64CFD7" opacity="1.000000" stroke="none" 
	d="
M87.799965,134.945648 
	C87.799965,134.945633 88.222420,135.029388 88.435104,134.999603 
	C87.706810,135.686005 86.765831,136.402176 85.532471,137.202148 
	C85.240089,137.285919 85.102188,137.123383 85.045624,136.728973 
	C85.008636,135.916824 85.028214,135.499084 85.394180,135.069122 
	C86.427032,135.019791 87.113495,134.982712 87.799965,134.945648 
z"/>
<path fill="#383994" opacity="1.000000" stroke="none" 
	d="
M247.240372,218.545990 
	C246.898483,218.463074 246.950455,218.106293 247.187012,217.861786 
	C247.632156,217.459991 247.787704,217.261154 247.890198,217.020798 
	C248.663467,216.985794 249.436722,216.950775 250.595215,216.955673 
	C249.847733,217.540024 248.714996,218.084457 247.240372,218.545990 
z"/>
<path fill="#3E6EBE" opacity="1.000000" stroke="none" 
	d="
M114.566956,194.326569 
	C114.818314,194.812805 114.936203,195.642899 114.902855,196.642456 
	C114.645569,196.098083 114.539528,195.384247 114.566956,194.326569 
z"/>
<path fill="#383994" opacity="1.000000" stroke="none" 
	d="
M115.215927,208.696991 
	C115.280106,208.997391 114.924400,209.089203 114.741058,209.092651 
	C114.465355,208.333221 114.373009,207.570343 114.413666,206.441803 
	C114.748360,206.849640 114.950058,207.623108 115.215927,208.696991 
z"/>
<path fill="#40A8CE" opacity="1.000000" stroke="none" 
	d="
M137.824417,119.211411 
	C137.544983,119.517815 137.052139,119.795555 136.335754,120.055389 
	C136.611816,119.752563 137.111420,119.467651 137.824417,119.211411 
z"/>
<path fill="#4050A9" opacity="1.000000" stroke="none" 
	d="
M113.384003,142.482758 
	C113.670074,142.634613 113.915993,143.064774 114.276230,143.735016 
	C114.390549,143.975128 114.251518,144.383240 114.133255,144.561432 
	C113.791275,144.080109 113.567558,143.420563 113.384003,142.482758 
z"/>
<path fill="#4050A9" opacity="1.000000" stroke="none" 
	d="
M114.087540,159.327118 
	C114.332397,159.564117 114.438469,160.128769 114.374329,160.861786 
	C114.118988,160.571686 114.033867,160.113220 114.087540,159.327118 
z"/>
<path fill="#37C4E0" opacity="1.000000" stroke="none" 
	d="
M105.161407,122.695099 
	C105.240128,122.467232 105.522087,122.232117 105.989799,121.964737 
	C105.905251,122.184273 105.634956,122.436066 105.161407,122.695099 
z"/>
<path fill="#40A8CE" opacity="1.000000" stroke="none" 
	d="
M139.783417,117.598267 
	C139.860062,117.807747 139.726089,117.953674 139.417236,118.048355 
	C139.314774,118.060776 139.292984,117.768211 139.292984,117.768211 
	C139.292984,117.768211 139.645218,117.598373 139.783417,117.598267 
z"/>
<path fill="#39D5E8" opacity="1.000000" stroke="none" 
	d="
M121.147415,110.440399 
	C121.278969,110.111954 121.688744,109.709869 122.396652,109.278381 
	C122.271729,109.621559 121.848686,109.994156 121.147415,110.440399 
z"/>
<path fill="#47F8EF" opacity="1.000000" stroke="none" 
	d="
M130.785980,101.163254 
	C131.004135,101.151802 131.012283,101.352959 131.031281,101.856140 
	C131.002975,102.503227 130.832947,102.762421 130.299484,102.995796 
	C130.236618,102.495834 130.406296,101.935844 130.785980,101.163254 
z"/>
<path fill="#383994" opacity="1.000000" stroke="none" 
	d="
M136.294525,284.076782 
	C136.417694,283.979797 136.567841,284.061066 136.794647,284.254944 
	C136.885574,284.341187 136.583572,284.417725 136.583572,284.417725 
	C136.583572,284.417725 136.335785,284.228668 136.294525,284.076782 
z"/>
<path fill="#4050A9" opacity="1.000000" stroke="none" 
	d="
M114.909180,153.948120 
	C114.975090,154.260452 114.791710,154.518143 114.394089,154.897766 
	C114.140602,154.844772 114.079689,154.654404 114.119247,154.181290 
	C114.219727,153.898560 114.681557,153.908920 114.909180,153.948120 
z"/>
<path fill="#4FE0DA" opacity="1.000000" stroke="none" 
	d="
M139.303131,96.045212 
	C139.247162,95.848915 139.457993,95.571892 139.899323,95.166290 
	C139.943207,95.346642 139.756561,95.655563 139.303131,96.045212 
z"/>
<path fill="#383994" opacity="1.000000" stroke="none" 
	d="
M160.232407,207.945923 
	C160.032700,207.859238 159.994431,207.686264 160.011139,207.253998 
	C160.175369,207.283005 160.284607,207.571320 160.232407,207.945923 
z"/>
<path fill="#3F9FBC" opacity="1.000000" stroke="none" 
	d="
M224.770782,98.278587 
	C224.744675,98.471756 224.452072,98.569122 224.063629,98.515350 
	C224.146622,98.303741 224.325455,98.243271 224.770782,98.278587 
z"/>
<path fill="#4050A9" opacity="1.000000" stroke="none" 
	d="
M114.017654,152.291809 
	C114.181641,152.288635 114.276131,152.576828 114.213249,152.715240 
	C114.150368,152.853668 113.742859,152.703323 113.742859,152.703323 
	C113.742859,152.703323 113.853661,152.294968 114.017654,152.291809 
z"/>
<path fill="#47F8EF" opacity="1.000000" stroke="none" 
	d="
M129.764862,103.725395 
	C129.456223,103.603630 129.522385,103.355911 129.931702,103.109177 
	C130.020126,103.206512 129.975082,103.369598 129.764862,103.725395 
z"/>
<path fill="#4564B4" opacity="1.000000" stroke="none" 
	d="
M245.815033,173.406128 
	C245.918289,173.549316 245.823898,173.714996 245.583191,173.953125 
	C245.397278,173.806656 245.457443,173.607666 245.815033,173.406128 
z"/>
<path fill="#383994" opacity="1.000000" stroke="none" 
	d="
M114.518814,213.268143 
	C114.822212,213.226654 114.890388,213.469971 114.712387,213.865082 
	C114.625847,213.969650 114.443245,213.505707 114.518814,213.268143 
z"/>
<path fill="#383994" opacity="1.000000" stroke="none" 
	d="
M244.237518,219.052567 
	C244.253433,218.890411 244.439133,218.821304 244.534943,218.842514 
	C244.630737,218.863724 244.581131,219.300339 244.581131,219.300339 
	C244.581131,219.300339 244.221619,219.214722 244.237518,219.052567 
z"/>
<path fill="#3989C3" opacity="1.000000" stroke="none" 
	d="
M114.362679,163.386612 
	C114.556877,163.409256 114.683372,163.646378 114.625252,163.955078 
	C114.440643,164.026657 114.294975,163.601089 114.362679,163.386612 
z"/>
<path fill="#4564B4" opacity="1.000000" stroke="none" 
	d="
M176.856659,213.528961 
	C176.853256,213.578171 176.795639,213.540588 176.816315,213.543335 
	C176.836990,213.546097 176.860062,213.479736 176.856659,213.528961 
z"/>
<path fill="#3E5DB8" opacity="1.000000" stroke="none" 
	d="
M192.837616,203.349243 
	C196.895676,200.554642 200.881943,198.215057 204.672836,195.593018 
	C206.181900,194.549225 207.258667,192.880447 208.764160,191.250549 
	C213.708969,196.907913 213.655685,196.799576 220.668076,193.350098 
	C221.899933,192.744110 223.838989,193.264206 225.362640,193.632065 
	C228.004181,194.269806 230.576340,195.194962 233.588425,196.001007 
	C233.325836,197.836792 232.917511,199.842133 231.884079,201.444244 
	C231.215912,202.480072 229.712631,203.245422 228.441498,203.562729 
	C226.412216,204.069305 224.264709,204.102295 221.170349,204.446365 
	C223.329468,207.140869 224.600677,208.727280 225.935638,210.657135 
	C220.913147,211.595627 215.828705,212.207169 210.738312,212.764267 
	C210.119827,212.831970 209.142288,212.841660 208.883224,212.481323 
	C205.645096,207.977264 200.744919,209.435089 196.450134,209.062531 
	C192.720596,208.738983 191.222900,207.392288 192.837616,203.349243 
z"/>
<path fill="#4249B3" opacity="1.000000" stroke="none" 
	d="
M220.309906,234.909607 
	C220.367355,235.671234 220.424789,236.432846 220.355194,237.559814 
	C213.450867,240.302246 206.671524,242.673508 199.899734,245.066162 
	C199.280655,245.284897 198.599182,246.014709 198.133286,245.876801 
	C190.391174,243.585022 184.420181,250.223358 176.724625,249.970764 
	C176.302231,246.929840 176.267044,243.900711 176.315430,240.420166 
	C177.391800,239.980331 178.444580,239.778778 179.367569,240.038467 
	C184.869080,241.586395 188.011673,239.709610 188.258987,233.683228 
	C193.294937,233.291824 199.555832,237.870621 201.246979,231.208511 
	C207.226486,230.384079 212.210785,229.696869 217.601425,229.375610 
	C218.775146,231.464249 219.542542,233.186920 220.309906,234.909607 
z"/>
<path fill="#4646AB" opacity="1.000000" stroke="none" 
	d="
M220.445648,234.539154 
	C219.542542,233.186920 218.775146,231.464249 218.006622,229.372925 
	C218.005493,229.004272 218.454987,228.989731 218.853333,229.196716 
	C219.719269,229.672073 220.186859,229.940460 220.654480,230.208832 
	C220.630096,231.528793 220.605728,232.848755 220.445648,234.539154 
z"/>
<path fill="#383994" opacity="1.000000" stroke="none" 
	d="
M220.739227,229.765808 
	C220.186859,229.940460 219.719269,229.672073 219.078064,229.189606 
	C219.348419,227.389587 219.792358,225.803680 220.572571,224.093353 
	C220.880569,225.753555 220.852280,227.538177 220.739227,229.765808 
z"/>
<path fill="#368FC7" opacity="1.000000" stroke="none" 
	d="
M253.141785,158.197845 
	C253.013184,156.931274 253.014236,155.866714 253.425232,154.381317 
	C261.252289,152.033157 268.684204,150.159409 276.070343,148.119934 
	C277.159485,147.819199 278.031860,146.733475 279.330872,146.091614 
	C282.106873,149.126343 284.556580,152.080383 287.006256,155.034439 
	C286.474274,157.475845 284.974030,158.913788 282.853851,157.078201 
	C277.146881,152.137299 271.072327,155.332489 265.203796,156.032410 
	C261.667480,156.454178 258.262360,157.975845 254.396332,159.014740 
	C253.714447,158.862381 253.473465,158.653595 253.141785,158.197845 
z"/>
<path fill="#368FC7" opacity="1.000000" stroke="none" 
	d="
M116.006317,167.461243 
	C117.312057,167.160919 118.615250,167.315140 120.188606,167.501312 
	C120.722313,166.615280 121.378014,165.698563 121.859352,164.697968 
	C123.972870,160.304474 126.465988,157.166397 132.298386,158.836151 
	C134.634842,159.505066 137.597107,157.763107 140.075577,158.213409 
	C143.847092,158.898651 147.747162,159.892746 149.275345,164.495789 
	C149.653854,165.635895 151.882126,166.161896 153.627075,166.983871 
	C154.326355,169.066833 154.658646,171.136124 154.988739,173.602417 
	C151.839935,172.936981 148.699677,171.855133 145.542847,170.824097 
	C144.616669,170.521591 143.617355,170.093964 142.696014,170.183075 
	C137.334030,170.701691 131.957520,171.191574 126.651070,172.080124 
	C125.282738,172.309250 124.228432,174.068161 122.884644,174.885590 
	C121.514603,175.719025 119.908142,176.853073 118.515305,176.718201 
	C117.582191,176.627853 116.432777,174.652954 116.115379,173.343155 
	C115.699234,171.625854 116.007233,169.733063 116.006317,167.461243 
z"/>
<path fill="#4646AB" opacity="1.000000" stroke="none" 
	d="
M119.991867,265.644897 
	C118.762085,264.402252 116.755173,262.931274 116.422363,261.147858 
	C115.611404,256.802307 115.576553,252.311935 115.620010,247.408264 
	C121.962097,244.139877 127.660500,240.234085 134.804291,242.994263 
	C137.649734,244.093643 140.537994,245.110184 143.465759,245.961502 
	C147.308884,247.078995 151.204987,248.017288 155.089294,248.988663 
	C156.665955,249.382950 158.271576,249.661438 159.864014,249.992599 
	C159.884445,255.345230 159.904877,260.697845 159.897705,266.515381 
	C155.436722,265.370514 151.086197,263.437622 146.539032,262.271606 
	C143.793549,261.567596 140.742691,262.054504 137.116394,261.831635 
	C134.209625,259.114136 133.122574,254.311890 128.018234,257.631866 
	C127.721298,257.824982 126.646057,256.558014 125.828094,256.285400 
	C124.960342,255.996140 123.967300,256.082764 123.028976,256.005219 
	C122.732277,256.161682 122.477066,256.369202 121.784256,256.892456 
	C120.543999,258.425812 119.782837,259.694427 119.021675,260.963074 
	C119.339874,262.400177 119.658073,263.837311 119.991867,265.644897 
z"/>
<path fill="#383994" opacity="1.000000" stroke="none" 
	d="
M123.214142,256.327972 
	C123.967300,256.082764 124.960342,255.996140 125.828094,256.285400 
	C126.646057,256.558014 127.721298,257.824982 128.018234,257.631866 
	C133.122574,254.311890 134.209625,259.114136 136.690216,261.834351 
	C135.342743,263.916870 133.496262,267.547607 132.117844,267.377838 
	C128.986099,266.992157 124.608986,266.493469 124.916656,261.166840 
	C125.001648,259.695587 123.936653,258.157928 123.214142,256.327972 
z"/>
<path fill="#383994" opacity="1.000000" stroke="none" 
	d="
M119.386658,260.943237 
	C119.782837,259.694427 120.543999,258.425812 121.646141,257.098389 
	C121.241959,258.334229 120.496803,259.628815 119.386658,260.943237 
z"/>
<path fill="#383994" opacity="1.000000" stroke="none" 
	d="
M142.412933,272.165100 
	C141.954269,271.894928 141.678314,271.458282 141.402374,271.021606 
	C141.686874,270.914673 141.971390,270.807739 142.255890,270.700775 
	C142.369156,271.133392 142.482422,271.565979 142.412933,272.165100 
z"/>
<path fill="#4052B6" opacity="1.000000" stroke="none" 
	d="
M247.734222,217.122955 
	C247.787704,217.261154 247.632156,217.459991 247.250366,217.693024 
	C247.213074,217.558868 247.380112,217.377670 247.734222,217.122955 
z"/>
<path fill="#3BBDDB" opacity="1.000000" stroke="none" 
	d="
M271.843445,120.730026 
	C272.632294,123.092110 273.258514,125.181473 273.608215,127.582993 
	C271.889008,127.262016 270.446289,126.628883 268.985992,125.623177 
	C267.042419,121.284836 260.799530,118.749619 256.567627,119.624649 
	C254.402023,120.072426 251.984436,119.426445 249.700684,119.124069 
	C248.594803,118.977638 247.487259,118.088531 246.462051,118.212158 
	C240.320023,118.952805 234.204163,119.907555 228.074829,120.756760 
	C222.335999,121.551865 216.604706,122.429886 210.845917,123.045120 
	C203.647339,123.814171 196.420609,124.315674 189.213013,125.005753 
	C185.930237,125.320053 182.939926,127.704529 184.935318,130.349609 
	C187.896454,134.274887 185.458450,136.340866 183.974045,139.086441 
	C180.118042,138.457932 178.199280,136.453979 178.776382,132.311157 
	C179.068649,130.213242 178.880829,128.048431 179.308105,125.460220 
	C183.819626,123.944641 187.528610,122.606544 188.462845,117.561508 
	C188.763290,115.939011 190.096664,113.779427 191.494324,113.229256 
	C195.229156,111.759041 199.207260,110.463860 203.175980,110.126762 
	C210.501907,109.504509 217.890823,109.446953 225.252350,109.473389 
	C231.844269,109.497070 238.584503,109.179466 244.984863,110.423935 
	C251.824051,111.753723 258.341888,114.736191 265.000000,116.997253 
	C265.498749,117.251839 265.997467,117.506424 266.798279,118.145164 
	C267.733337,118.684441 268.366302,118.839569 268.999298,118.994690 
	C269.893127,119.482224 270.786957,119.969757 271.843445,120.730026 
z"/>
<path fill="#3FC6E0" opacity="1.000000" stroke="none" 
	d="
M264.939697,116.651733 
	C258.341888,114.736191 251.824051,111.753723 244.984863,110.423935 
	C238.584503,109.179466 231.844269,109.497070 225.252350,109.473389 
	C217.890823,109.446953 210.501907,109.504509 203.175980,110.126762 
	C199.207260,110.463860 195.229156,111.759041 191.494324,113.229256 
	C190.096664,113.779427 188.763290,115.939011 188.462845,117.561508 
	C187.528610,122.606544 183.819626,123.944641 179.318176,125.023842 
	C178.925293,123.361549 178.920395,121.681984 178.928452,119.593536 
	C179.119125,109.091766 179.174774,109.283058 188.860153,106.482086 
	C197.248550,104.056198 205.674820,104.464890 214.214966,104.864517 
	C222.125748,105.234688 230.099655,104.544655 237.980408,105.159355 
	C242.748337,105.531242 247.395996,107.482773 252.089249,108.755661 
	C253.937088,109.256844 255.994736,109.479012 257.545197,110.471382 
	C260.162537,112.146629 262.452026,114.334137 264.939697,116.651733 
z"/>
<path fill="#3FC6E0" opacity="1.000000" stroke="none" 
	d="
M268.804077,118.782173 
	C268.366302,118.839569 267.733337,118.684441 267.051392,118.264984 
	C267.537933,118.190323 268.073395,118.379990 268.804077,118.782173 
z"/>
<path fill="#41F3EC" opacity="1.000000" stroke="none" 
	d="
M145.994507,84.999664 
	C144.545822,85.965157 143.097122,86.930634 141.321671,87.948318 
	C137.660263,78.054428 131.419296,71.224289 120.438461,68.724808 
	C122.076393,66.211670 124.038017,64.102539 125.999634,61.993412 
	C126.493484,61.417915 126.987328,60.842419 128.024597,60.365860 
	C130.988342,59.922611 133.661407,59.859749 135.778793,58.743153 
	C140.932938,56.025116 144.001389,56.893883 144.714096,61.738049 
	C145.224945,65.210312 146.077560,68.638443 146.458710,72.121178 
	C146.665253,74.008400 146.168198,75.966637 146.056091,77.896751 
	C145.976898,79.260353 146.011124,80.630547 145.899506,82.242935 
	C145.867722,83.325279 145.931107,84.162468 145.994507,84.999664 
z"/>
<path fill="#31D4E2" opacity="1.000000" stroke="none" 
	d="
M120.988098,99.004211 
	C119.929024,99.710800 118.217606,100.210663 117.917480,101.157745 
	C116.068726,106.991867 110.162430,108.672203 106.064560,112.587067 
	C106.690140,107.353821 103.664101,103.866051 100.767502,100.291374 
	C99.442268,98.655891 97.635674,97.036819 97.187080,95.140678 
	C96.183022,90.896652 94.117867,91.754280 91.394997,93.146889 
	C88.656021,94.547737 85.798309,95.716454 83.058182,96.644974 
	C84.865181,94.872429 86.498589,93.276642 88.373489,92.049973 
	C91.160683,90.226440 94.118629,88.663910 97.003906,86.990295 
	C97.841782,86.803093 98.679657,86.615898 100.132492,86.275024 
	C106.625641,89.069595 112.571014,91.895737 118.328522,95.063332 
	C119.563850,95.742973 120.119400,97.658188 120.988098,99.004211 
z"/>
<path fill="#34E1E5" opacity="1.000000" stroke="none" 
	d="
M121.186127,99.233688 
	C120.119400,97.658188 119.563850,95.742973 118.328522,95.063332 
	C112.571014,91.895737 106.625641,89.069595 100.369278,86.051033 
	C101.465553,81.891319 104.528793,80.335258 108.712677,80.079079 
	C111.245071,79.924011 114.184578,78.081268 116.126305,78.908791 
	C118.157738,79.774574 119.028084,83.098625 120.771057,85.016296 
	C121.682884,86.019531 123.326088,86.641380 124.729256,86.862473 
	C129.259964,87.576347 129.598495,90.212059 128.085327,93.699547 
	C127.044746,96.097862 125.754555,98.387886 124.285172,100.867020 
	C123.124336,100.492874 122.254234,99.978012 121.186127,99.233688 
z"/>
<path fill="#39D5E8" opacity="1.000000" stroke="none" 
	d="
M96.933121,86.686569 
	C94.118629,88.663910 91.160683,90.226440 88.373489,92.049973 
	C86.498589,93.276642 84.865181,94.872429 82.718948,96.597977 
	C81.211952,96.605354 80.109741,96.317825 78.665771,96.033463 
	C76.876381,96.029808 75.428749,96.022987 73.981117,96.016159 
	C77.122192,93.443909 80.263268,90.871651 84.105148,88.149414 
	C88.201294,86.988045 91.596642,85.976646 94.991982,84.965248 
	C95.615433,85.437782 96.238884,85.910316 96.933121,86.686569 
z"/>
<path fill="#47F8EF" opacity="1.000000" stroke="none" 
	d="
M125.607559,61.998016 
	C124.038017,64.102539 122.076393,66.211670 120.056358,68.657623 
	C116.484039,70.492233 112.970139,71.990005 108.861145,73.755211 
	C106.181244,74.014847 104.096443,74.007065 102.011635,73.999283 
	C104.972893,71.247574 107.934151,68.495857 110.995499,65.421021 
	C112.462990,64.709496 113.830399,64.321075 115.549133,63.886452 
	C119.005470,63.227703 122.110474,62.615162 125.607559,61.998016 
z"/>
<path fill="#41F3EC" opacity="1.000000" stroke="none" 
	d="
M101.826065,74.286179 
	C104.096443,74.007065 106.181244,74.014847 108.626755,74.009453 
	C105.712471,76.145416 102.386818,78.222519 99.184715,80.475243 
	C97.669922,81.540916 96.391571,82.942688 94.999039,84.578720 
	C91.596642,85.976646 88.201294,86.988045 84.416199,88.008957 
	C89.897797,83.536674 95.769150,79.054871 101.826065,74.286179 
z"/>
<path fill="#4932A4" opacity="1.000000" stroke="none" 
	d="
M218.004974,268.012543 
	C215.288559,270.328583 212.694046,272.809784 209.828705,274.923981 
	C204.867706,278.584534 199.773590,282.069092 194.660675,285.516815 
	C192.975769,286.652954 191.060287,287.447144 189.250229,288.397705 
	C188.973801,287.992584 188.697372,287.587494 188.420929,287.182404 
	C188.845978,286.369995 189.487198,285.596527 189.642258,284.735474 
	C189.843491,283.618042 189.657776,282.430939 189.638626,281.273804 
	C188.482178,281.315521 187.211990,281.063354 186.192184,281.458069 
	C183.833054,282.371216 181.595154,283.597565 179.308090,284.696899 
	C178.540802,281.941681 177.444031,279.227509 177.094315,276.420258 
	C176.706055,273.303589 176.999420,270.102020 177.426544,266.469727 
	C181.139603,264.844116 184.433105,263.715881 187.698212,262.510773 
	C188.734283,262.128387 190.025162,260.860077 190.636627,261.156830 
	C194.956375,263.253204 198.942627,262.086304 203.075104,260.617096 
	C204.709549,260.036041 206.767227,259.714874 208.350357,260.198303 
	C209.756653,260.627747 211.120346,262.153351 211.841278,263.539246 
	C212.334290,264.486969 211.691299,266.025604 211.593704,266.946228 
	C213.916245,267.332520 215.960602,267.672516 218.004974,268.012543 
z"/>
<path fill="#493AAA" opacity="1.000000" stroke="none" 
	d="
M218.013702,267.594757 
	C215.960602,267.672516 213.916245,267.332520 211.593704,266.946228 
	C211.691299,266.025604 212.334290,264.486969 211.841278,263.539246 
	C211.120346,262.153351 209.756653,260.627747 208.350357,260.198303 
	C206.767227,259.714874 204.709549,260.036041 203.075104,260.617096 
	C198.942627,262.086304 194.956375,263.253204 190.636627,261.156830 
	C190.025162,260.860077 188.734283,262.128387 187.698212,262.510773 
	C184.433105,263.715881 181.139603,264.844116 177.432495,266.002869 
	C176.739426,262.935028 176.470932,259.866425 176.250610,256.389771 
	C184.881119,254.476349 193.456772,252.931442 202.048218,251.480072 
	C207.371368,250.580826 212.718521,249.823685 218.434799,248.995529 
	C218.550598,255.051193 218.286499,261.114075 218.013702,267.594757 
z"/>
<path fill="#399ECC" opacity="1.000000" stroke="none" 
	d="
M287.355347,155.091370 
	C284.556580,152.080383 282.106873,149.126343 279.160767,145.794891 
	C277.774231,143.614487 276.884064,141.811508 276.197510,139.772461 
	C277.591095,138.694778 278.781128,137.853149 280.149475,137.296356 
	C281.845337,139.319458 283.416656,141.014114 284.868835,142.805374 
	C287.624969,146.205048 290.312805,149.660049 293.028992,153.092072 
	C293.238586,158.916138 290.135193,156.161377 287.355347,155.091370 
z"/>
<path fill="#42AED6" opacity="1.000000" stroke="none" 
	d="
M293.038025,152.654877 
	C290.312805,149.660049 287.624969,146.205048 284.868835,142.805374 
	C283.416656,141.014114 281.845337,139.319458 279.964844,137.056107 
	C278.734131,135.687408 277.866364,134.843781 277.042908,133.710388 
	C277.400360,132.941620 277.713562,132.462646 278.026764,131.983673 
	C284.554352,133.769226 286.427032,139.990997 290.041779,144.558777 
	C290.711151,145.404648 291.558746,146.109512 292.672668,146.952942 
	C293.029816,148.756851 293.038422,150.487259 293.038025,152.654877 
z"/>
<path fill="#34B2D6" opacity="1.000000" stroke="none" 
	d="
M277.759735,131.757751 
	C277.713562,132.462646 277.400360,132.941620 276.714783,133.563995 
	C275.411377,133.350067 274.351410,133.171631 273.569336,132.607773 
	C265.927917,127.098381 257.227386,127.108315 248.532257,128.215363 
	C246.140060,128.519943 243.902191,130.778229 241.912918,132.507492 
	C241.680847,132.709198 243.697556,135.186249 244.297485,136.751862 
	C244.809265,138.087402 244.782639,139.629257 244.994186,141.079849 
	C239.646179,140.732574 234.298172,140.385315 228.424408,139.707321 
	C225.969040,135.857224 224.855469,137.234970 223.978043,140.029907 
	C222.922165,140.033142 221.866272,140.036377 220.351730,139.694061 
	C215.968903,135.299744 210.445587,134.632828 205.549271,132.693649 
	C202.248505,131.386383 197.579712,133.474579 195.041107,128.446808 
	C196.791656,127.860649 197.986725,127.186089 199.225754,127.092247 
	C205.172256,126.641846 211.129349,126.323616 217.085342,126.008720 
	C220.562195,125.824898 224.050354,125.825508 227.522095,125.581711 
	C232.216797,125.252045 236.894867,124.676758 241.590958,124.377861 
	C245.335068,124.139557 249.273544,124.835823 252.808487,123.908203 
	C258.669769,122.370102 263.915100,122.874779 269.003540,125.995750 
	C270.446289,126.628883 271.889008,127.262016 273.667725,127.942001 
	C275.166687,129.169846 276.329681,130.350845 277.759735,131.757751 
z"/>
<path fill="#38B7D8" opacity="1.000000" stroke="none" 
	d="
M268.985992,125.623177 
	C263.915100,122.874779 258.669769,122.370102 252.808487,123.908203 
	C249.273544,124.835823 245.335068,124.139557 241.590958,124.377861 
	C236.894867,124.676758 232.216797,125.252045 227.522095,125.581711 
	C224.050354,125.825508 220.562195,125.824898 217.085342,126.008720 
	C211.129349,126.323616 205.172256,126.641846 199.225754,127.092247 
	C197.986725,127.186089 196.791656,127.860649 195.041107,128.446808 
	C197.579712,133.474579 202.248505,131.386383 205.549271,132.693649 
	C210.445587,134.632828 215.968903,135.299744 219.955795,139.688705 
	C209.989365,140.022644 199.960205,140.016418 189.358017,139.880997 
	C188.465912,139.594208 188.204300,139.675827 188.000137,139.996689 
	C186.840759,139.839371 185.681366,139.682068 184.248016,139.305603 
	C185.458450,136.340866 187.896454,134.274887 184.935318,130.349609 
	C182.939926,127.704529 185.930237,125.320053 189.213013,125.005753 
	C196.420609,124.315674 203.647339,123.814171 210.845917,123.045120 
	C216.604706,122.429886 222.335999,121.551865 228.074829,120.756760 
	C234.204163,119.907555 240.320023,118.952805 246.462051,118.212158 
	C247.487259,118.088531 248.594803,118.977638 249.700684,119.124069 
	C251.984436,119.426445 254.402023,120.072426 256.567627,119.624649 
	C260.799530,118.749619 267.042419,121.284836 268.985992,125.623177 
z"/>
<path fill="#33A3CA" opacity="1.000000" stroke="none" 
	d="
M245.055420,141.413513 
	C244.782639,139.629257 244.809265,138.087402 244.297485,136.751862 
	C243.697556,135.186249 241.680847,132.709198 241.912918,132.507492 
	C243.902191,130.778229 246.140060,128.519943 248.532257,128.215363 
	C257.227386,127.108315 265.927917,127.098381 273.569336,132.607773 
	C274.351410,133.171631 275.411377,133.350067 276.670502,133.853760 
	C277.866364,134.843781 278.734131,135.687408 279.786499,136.771286 
	C278.781128,137.853149 277.591095,138.694778 275.823608,139.770630 
	C274.497986,140.004440 273.749878,140.004013 272.829956,139.725739 
	C271.438751,139.631775 270.219391,139.815659 268.588623,140.000000 
	C266.695312,139.880493 265.099976,140.074310 263.750854,139.586777 
	C257.556244,137.348236 256.939941,137.484528 253.517563,143.208572 
	C252.588745,144.762039 251.817123,146.409485 250.973343,148.013794 
	C249.021118,145.924927 247.068893,143.836044 245.055420,141.413513 
z"/>
<path fill="#3099C7" opacity="1.000000" stroke="none" 
	d="
M273.001740,140.003571 
	C273.749878,140.004013 274.497986,140.004440 275.619995,140.006714 
	C276.884064,141.811508 277.774231,143.614487 278.834473,145.714203 
	C278.031860,146.733475 277.159485,147.819199 276.070343,148.119934 
	C268.684204,150.159409 261.252289,152.033157 253.428146,153.981949 
	C252.379959,152.238281 251.738815,150.473129 251.035492,148.360886 
	C251.817123,146.409485 252.588745,144.762039 253.517563,143.208572 
	C256.939941,137.484528 257.556244,137.348236 263.750854,139.586777 
	C265.099976,140.074310 266.695312,139.880493 268.880859,140.132965 
	C270.723511,140.178177 271.862640,140.090866 273.001740,140.003571 
z"/>
<path fill="#38B7D8" opacity="1.000000" stroke="none" 
	d="
M224.382401,140.034607 
	C224.855469,137.234970 225.969040,135.857224 227.959839,139.701614 
	C226.942932,140.030838 225.864838,140.035065 224.382401,140.034607 
z"/>
<path fill="#3BBDDB" opacity="1.000000" stroke="none" 
	d="
M188.248383,139.999130 
	C188.204300,139.675827 188.465912,139.594208 188.889008,139.871002 
	C188.993011,139.990189 188.496628,140.001572 188.248383,139.999130 
z"/>
<path fill="#425AB4" opacity="1.000000" stroke="none" 
	d="
M115.264748,232.916000 
	C115.233978,230.557739 115.203209,228.199478 115.230865,225.398010 
	C120.798851,220.394989 126.923912,221.376251 133.484543,221.903793 
	C137.708664,222.243454 142.275726,220.670639 146.496735,222.402435 
	C149.511780,223.639465 152.229797,225.600449 155.875366,227.695206 
	C155.888947,227.686035 157.037949,226.909561 158.492935,226.061432 
	C159.101212,229.036682 159.403503,232.083588 159.361145,235.547134 
	C152.548309,235.204041 146.460434,233.273209 139.570236,233.425659 
	C131.595886,233.602081 123.484070,230.660370 115.264748,232.916000 
z"/>
<path fill="#425AB4" opacity="1.000000" stroke="none" 
	d="
M115.170822,216.369720 
	C115.324081,216.272141 115.562538,216.415543 115.870605,216.820282 
	C115.738853,216.875046 115.510788,216.718079 115.170822,216.369720 
z"/>
<path fill="#4BFDF6" opacity="1.000000" stroke="none" 
	d="
M146.298462,85.070984 
	C145.931107,84.162468 145.867722,83.325279 146.236115,82.140587 
	C154.928223,71.885933 148.769287,61.410660 147.674484,51.176334 
	C147.618607,50.653835 144.926666,50.094769 143.470108,50.115612 
	C141.306488,50.146576 139.150055,50.680622 136.990570,51.000542 
	C138.824493,49.657246 140.908051,48.544792 142.423065,46.906570 
	C143.978180,45.224979 144.977646,43.029522 146.862900,41.367294 
	C149.773483,46.432415 152.308350,47.827419 156.060043,44.289783 
	C156.618423,43.763271 157.980865,44.089481 159.339325,44.039215 
	C159.791199,53.164543 159.691895,62.278606 160.027176,71.376656 
	C160.230392,76.891731 157.860596,80.528793 153.344711,83.226028 
	C151.664444,84.229614 150.158966,85.525803 148.274323,86.858398 
	C147.517395,86.399582 147.059921,85.770943 146.298462,85.070984 
z"/>
<path fill="#47F8EF" opacity="1.000000" stroke="none" 
	d="
M136.703232,51.176025 
	C139.150055,50.680622 141.306488,50.146576 143.470108,50.115612 
	C144.926666,50.094769 147.618607,50.653835 147.674484,51.176334 
	C148.769287,61.410660 154.928223,71.885933 146.331299,81.895447 
	C146.011124,80.630547 145.976898,79.260353 146.056091,77.896751 
	C146.168198,75.966637 146.665253,74.008400 146.458710,72.121178 
	C146.077560,68.638443 145.224945,65.210312 144.714096,61.738049 
	C144.001389,56.893883 140.932938,56.025116 135.778793,58.743153 
	C133.661407,59.859749 130.988342,59.922611 128.277435,60.226845 
	C130.796524,57.109764 133.606201,54.230637 136.703232,51.176025 
z"/>
<path fill="#42AED6" opacity="1.000000" stroke="none" 
	d="
M159.327911,109.013779 
	C159.752884,109.406578 159.803070,109.854294 159.624756,110.676117 
	C159.507019,111.375900 159.617798,111.701584 159.728577,112.027267 
	C159.710724,116.379738 159.692871,120.732216 159.583344,125.543488 
	C158.254730,128.183624 157.017776,130.364960 155.502167,133.037704 
	C152.163223,129.970383 154.113724,123.377541 148.476379,123.095467 
	C144.586853,122.900848 140.650085,123.650070 136.372284,123.990562 
	C139.107178,120.872307 141.926147,117.337120 145.489731,114.883385 
	C146.422577,114.241066 149.800980,116.773514 151.798431,118.207108 
	C152.859070,118.968338 153.367050,120.499550 154.124512,121.683189 
	C154.626709,121.667480 155.128906,121.651779 155.631119,121.636078 
	C156.088196,119.099518 156.421616,116.532066 157.045105,114.037094 
	C157.472031,112.328712 158.302856,110.721268 159.327911,109.013779 
z"/>
<path fill="#4050A9" opacity="1.000000" stroke="none" 
	d="
M115.208282,233.385788 
	C123.484070,230.660370 131.595886,233.602081 139.570236,233.425659 
	C146.460434,233.273209 152.548309,235.204041 159.403412,235.944244 
	C159.834991,240.305084 159.879623,244.685455 159.894135,249.529205 
	C158.271576,249.661438 156.665955,249.382950 155.089294,248.988663 
	C151.204987,248.017288 147.308884,247.078995 143.465759,245.961502 
	C140.537994,245.110184 137.649734,244.093643 134.804291,242.994263 
	C127.660500,240.234085 121.962097,244.139877 115.667023,246.969330 
	C115.266068,242.619873 115.208946,238.237732 115.208282,233.385788 
z"/>
<path fill="#37C4E0" opacity="1.000000" stroke="none" 
	d="
M79.007538,96.030289 
	C80.109741,96.317825 81.211952,96.605354 82.653397,96.939880 
	C85.798309,95.716454 88.656021,94.547737 91.394997,93.146889 
	C94.117867,91.754280 96.183022,90.896652 97.187080,95.140678 
	C97.635674,97.036819 99.442268,98.655891 100.767502,100.291374 
	C103.664101,103.866051 106.690140,107.353821 105.772827,112.754578 
	C104.032318,116.774742 102.071335,120.536179 100.040039,124.642014 
	C98.749931,126.129982 97.530136,127.273560 96.132416,128.676056 
	C93.329826,130.729813 90.705154,132.524658 87.940231,134.632568 
	C87.113495,134.982712 86.427032,135.019791 85.381248,134.729126 
	C85.181946,133.615082 85.064659,132.526520 85.543243,132.087540 
	C93.710999,124.595558 93.954712,119.358902 86.431175,111.761223 
	C85.877159,111.201736 85.263084,110.396080 85.227562,109.677658 
	C84.966515,104.397171 81.295555,102.888077 77.062149,101.649536 
	C77.751816,99.543839 78.379677,97.787071 79.007538,96.030289 
z"/>
<path fill="#3BBDDB" opacity="1.000000" stroke="none" 
	d="
M52.983330,111.942429 
	C55.732025,109.618584 58.480721,107.294739 61.814629,105.159744 
	C64.264282,105.563873 66.128731,105.779160 68.275574,106.154465 
	C70.037697,107.873268 71.517403,109.432053 72.603790,110.989700 
	C64.969322,108.705322 59.883560,111.722115 55.991375,117.614922 
	C55.268272,118.709702 54.656445,119.877983 53.751144,120.692047 
	C53.333797,117.561981 53.158562,114.752205 52.983330,111.942429 
z"/>
<path fill="#3FC6E0" opacity="1.000000" stroke="none" 
	d="
M67.993172,105.994431 
	C66.128731,105.779160 64.264282,105.563873 62.175407,105.136612 
	C65.719482,101.964218 69.487991,99.003807 73.618813,96.029770 
	C75.428749,96.022987 76.876381,96.029808 78.665779,96.033463 
	C78.379677,97.787071 77.751816,99.543839 76.879456,101.937057 
	C73.754372,103.713814 70.873772,104.854126 67.993172,105.994431 
z"/>
<path fill="#42AED6" opacity="1.000000" stroke="none" 
	d="
M52.815559,111.928886 
	C53.158562,114.752205 53.333797,117.561981 53.752193,121.136383 
	C53.652077,124.955612 53.308792,128.010223 52.965511,131.064835 
	C52.698101,124.981995 52.430691,118.899162 52.238968,112.341660 
	C52.314655,111.866989 52.647789,111.915344 52.815559,111.928886 
z"/>
<path fill="#40A8CE" opacity="1.000000" stroke="none" 
	d="
M159.775711,111.764923 
	C159.617798,111.701584 159.507019,111.375900 159.576202,111.011948 
	C159.778397,111.149971 159.800613,111.326271 159.775711,111.764923 
z"/>
<path fill="#34BFDA" opacity="1.000000" stroke="none" 
	d="
M68.275574,106.154465 
	C70.873772,104.854126 73.754372,103.713814 76.817665,102.285995 
	C81.295555,102.888077 84.966515,104.397171 85.227562,109.677658 
	C85.263084,110.396080 85.877159,111.201736 86.431175,111.761223 
	C93.954712,119.358902 93.710999,124.595558 85.543243,132.087540 
	C85.064659,132.526520 85.181946,133.615082 85.034866,134.741364 
	C85.028214,135.499084 85.008636,135.916824 84.975677,136.648560 
	C84.529991,136.981018 84.097687,136.999481 83.179276,136.932495 
	C82.461662,137.233017 82.230164,137.618958 81.998672,138.004883 
	C81.246841,138.348999 80.495010,138.693115 79.104912,139.095505 
	C77.976395,139.768585 77.486153,140.383408 76.995911,140.998215 
	C76.995911,140.998215 77.000000,141.000000 76.639816,140.994659 
	C75.182655,140.662659 74.085678,140.335968 73.074669,139.684357 
	C75.755211,136.644333 79.174522,134.320511 80.702835,131.099472 
	C82.114609,128.124054 82.738747,123.630188 81.472267,120.809822 
	C79.775116,117.030342 75.923630,114.218262 72.997116,110.990829 
	C71.517403,109.432053 70.037697,107.873268 68.275574,106.154465 
z"/>
<path fill="#42AED6" opacity="1.000000" stroke="none" 
	d="
M72.988701,140.009277 
	C74.085678,140.335968 75.182655,140.662659 76.639359,140.992569 
	C72.212807,144.584213 67.426521,148.172623 62.053391,151.742432 
	C59.517319,151.723846 57.568089,151.723846 54.871315,151.723846 
	C55.001785,151.967987 54.470825,150.974426 53.939865,149.980865 
	C53.944248,149.243607 53.948631,148.506363 54.190617,147.135315 
	C54.619431,145.338089 54.810642,144.174652 55.344521,143.072937 
	C57.280128,144.407608 58.873070,145.680557 59.645248,146.297623 
	C64.580750,143.971680 68.784721,141.990479 72.988701,140.009277 
z"/>
<path fill="#49BBDD" opacity="1.000000" stroke="none" 
	d="
M53.724907,150.244629 
	C54.470825,150.974426 55.001785,151.967987 54.871315,151.723846 
	C57.568089,151.723846 59.517319,151.723846 61.745472,151.894348 
	C59.918209,153.481186 57.812016,154.897537 54.675903,157.006470 
	C54.146179,154.054199 53.828068,152.281296 53.724907,150.244629 
z"/>
<path fill="#49BBDD" opacity="1.000000" stroke="none" 
	d="
M55.001858,143.011215 
	C54.810642,144.174652 54.619431,145.338089 54.187668,146.766693 
	C53.947117,147.031845 53.518265,147.011230 53.304794,146.996902 
	C53.055241,143.955887 53.019161,140.929199 53.244965,137.452347 
	C53.506847,137.002182 54.005909,137.005722 54.008587,137.390961 
	C54.341461,139.521210 54.671658,141.266205 55.001858,143.011215 
z"/>
<path fill="#42AED6" opacity="1.000000" stroke="none" 
	d="
M77.300705,140.933136 
	C77.486153,140.383408 77.976395,139.768585 78.783264,139.107666 
	C78.601746,139.663727 78.103622,140.265884 77.300705,140.933136 
z"/>
<path fill="#42AED6" opacity="1.000000" stroke="none" 
	d="
M82.203194,137.882706 
	C82.230164,137.618958 82.461662,137.233017 82.854858,136.941589 
	C82.867493,137.322861 82.664543,137.564331 82.203194,137.882706 
z"/>
<path fill="#34B2D6" opacity="1.000000" stroke="none" 
	d="
M55.344521,143.072937 
	C54.671658,141.266205 54.341461,139.521210 54.227654,137.139694 
	C53.955574,135.321228 53.467110,134.139282 52.978645,132.957321 
	C52.969219,132.536102 52.959797,132.114883 52.957943,131.379242 
	C53.308792,128.010223 53.652077,124.955612 53.994308,121.456665 
	C54.656445,119.877983 55.268272,118.709702 55.991375,117.614922 
	C59.883560,111.722115 64.969322,108.705322 72.603790,110.989700 
	C75.923630,114.218262 79.775116,117.030342 81.472267,120.809822 
	C82.738747,123.630188 82.114609,128.124054 80.702835,131.099472 
	C79.174522,134.320511 75.755211,136.644333 73.074669,139.684357 
	C68.784721,141.990479 64.580750,143.971680 59.645248,146.297623 
	C58.873070,145.680557 57.280128,144.407608 55.344521,143.072937 
z"/>
<path fill="#42AED6" opacity="1.000000" stroke="none" 
	d="
M52.963474,133.361908 
	C53.467110,134.139282 53.955574,135.321228 54.224976,136.754456 
	C54.005909,137.005722 53.506847,137.002182 53.257423,136.998077 
	C52.988102,135.918137 52.968204,134.842300 52.963474,133.361908 
z"/>
<path fill="#399ECC" opacity="1.000000" stroke="none" 
	d="
M272.829956,139.725739 
	C271.862640,140.090866 270.723511,140.178177 269.292206,140.132507 
	C270.219391,139.815659 271.438751,139.631775 272.829956,139.725739 
z"/>
</svg>